<?xml version="1.0" encoding="UTF-8"?>
<svg xmlns="http://www.w3.org/2000/svg" xmlns:xlink="http://www.w3.org/1999/xlink"
     width="400" height="400" viewBox="0 0 400 400">
<defs>
</defs>
<path d="M216.22027,254.81466 L201.54527,255.90902 L201.54322,256.48171 Z" fill="#ae0000" fill-opacity="0.5882352941176471" stroke="#000000" stroke-width="0.3" />
<path d="M201.54527,255.90902 L186.64651,255.03536 L186.66577,255.60939 Z" fill="#900000" fill-opacity="0.5882352941176471" stroke="#000000" stroke-width="0.3" />
<path d="M186.66577,255.60939 L201.54322,256.48171 L201.54527,255.90902 Z" fill="#900000" fill-opacity="0.5882352941176471" stroke="#000000" stroke-width="0.3" />
<path d="M201.54322,256.48171 L216.19668,255.38952 L216.22027,254.81466 Z" fill="#ad0000" fill-opacity="0.5882352941176471" stroke="#000000" stroke-width="0.3" />
<path d="M230.45709,251.81709 L216.22027,254.81466 L216.19668,255.38952 Z" fill="#c70000" fill-opacity="0.5882352941176471" stroke="#000000" stroke-width="0.3" />
<path d="M171.777,252.69891 L186.66577,255.60939 L186.64651,255.03536 Z" fill="#6e0000" fill-opacity="0.5882352941176471" stroke="#000000" stroke-width="0.3" />
<path d="M186.64651,255.03536 L171.73572,252.11978 L171.777,252.69891 Z" fill="#6e0000" fill-opacity="0.5882352941176471" stroke="#000000" stroke-width="0.3" />
<path d="M216.19668,255.38952 L201.54322,256.48171 L201.52866,256.37977 Z" fill="#c80000" fill-opacity="0.7843137254901961" stroke="#000000" stroke-width="0.3" />
<path d="M201.54322,256.48171 L186.66577,255.60939 L186.79067,255.51564 Z" fill="#c80000" fill-opacity="0.7843137254901961" stroke="#000000" stroke-width="0.3" />
<path d="M186.79067,255.51564 L201.52866,256.37977 L201.54322,256.48171 Z" fill="#c80000" fill-opacity="0.7843137254901961" stroke="#000000" stroke-width="0.3" />
<path d="M216.19668,255.38952 L230.41259,252.39699 L230.45709,251.81709 Z" fill="#c70000" fill-opacity="0.5882352941176471" stroke="#000000" stroke-width="0.3" />
<path d="M201.52866,256.37977 L216.04523,255.2977 L216.19668,255.38952 Z" fill="#c80000" fill-opacity="0.7843137254901961" stroke="#000000" stroke-width="0.3" />
<path d="M230.41259,252.39699 L216.19668,255.38952 L216.04523,255.2977 Z" fill="#c80000" fill-opacity="0.7843137254901961" stroke="#000000" stroke-width="0.3" />
<path d="M172.04141,252.63262 L186.79067,255.51564 L186.66577,255.60939 Z" fill="#c80000" fill-opacity="0.7843137254901961" stroke="#000000" stroke-width="0.3" />
<path d="M186.66577,255.60939 L171.777,252.69891 L172.04141,252.63262 Z" fill="#c80000" fill-opacity="0.7843137254901961" stroke="#000000" stroke-width="0.3" />
<path d="M244.03712,246.97308 L230.45709,251.81709 L230.41259,252.39699 Z" fill="#dc0000" fill-opacity="0.5882352941176471" stroke="#000000" stroke-width="0.3" />
<path d="M216.04523,255.2977 L201.52866,256.37977 L201.49431,255.1701 Z" fill="#c80000" fill-opacity="0.7843137254901961" stroke="#000000" stroke-width="0.3" />
<path d="M157.08677,247.66573 L171.777,252.69891 L171.73572,252.11978 Z" fill="#490000" fill-opacity="0.5882352941176471" stroke="#000000" stroke-width="0.3" />
<path d="M201.52866,256.37977 L186.79067,255.51564 L187.08798,254.32489 Z" fill="#c80000" fill-opacity="0.7843137254901961" stroke="#000000" stroke-width="0.3" />
<path d="M216.04523,255.2977 L230.12764,252.33327 L230.41259,252.39699 Z" fill="#c80000" fill-opacity="0.7843137254901961" stroke="#000000" stroke-width="0.3" />
<path d="M171.73572,252.11978 L157.02362,247.07826 L157.08677,247.66573 Z" fill="#4a0000" fill-opacity="0.5882352941176471" stroke="#000000" stroke-width="0.3" />
<path d="M187.08798,254.32489 L201.49431,255.1701 L201.52866,256.37977 Z" fill="#c80000" fill-opacity="0.7843137254901961" stroke="#000000" stroke-width="0.3" />
<path d="M201.49431,255.1701 L215.6845,254.11137 L216.04523,255.2977 Z" fill="#c80000" fill-opacity="0.7843137254901961" stroke="#000000" stroke-width="0.3" />
<path d="M230.12764,252.33327 L216.04523,255.2977 L215.6845,254.11137 Z" fill="#c80000" fill-opacity="0.7843137254901961" stroke="#000000" stroke-width="0.3" />
<path d="M230.41259,252.39699 L243.9726,247.56121 L244.03712,246.97308 Z" fill="#dc0000" fill-opacity="0.5882352941176471" stroke="#000000" stroke-width="0.3" />
<path d="M243.9726,247.56121 L230.41259,252.39699 L230.12764,252.33327 Z" fill="#c80000" fill-opacity="0.7843137254901961" stroke="#000000" stroke-width="0.3" />
<path d="M186.79067,255.51564 L172.04141,252.63262 L172.67068,251.50505 Z" fill="#c80000" fill-opacity="0.7843137254901961" stroke="#000000" stroke-width="0.3" />
<path d="M172.67068,251.50505 L187.08798,254.32489 L186.79067,255.51564 Z" fill="#c80000" fill-opacity="0.7843137254901961" stroke="#000000" stroke-width="0.3" />
<path d="M157.48941,247.6466 L172.04141,252.63262 L171.777,252.69891 Z" fill="#c80000" fill-opacity="0.7843137254901961" stroke="#000000" stroke-width="0.3" />
<path d="M171.777,252.69891 L157.08677,247.66573 L157.48941,247.6466 Z" fill="#c80000" fill-opacity="0.7843137254901961" stroke="#000000" stroke-width="0.3" />
<path d="M215.6845,254.11137 L229.4495,251.21218 L230.12764,252.33327 Z" fill="#c80000" fill-opacity="0.7843137254901961" stroke="#000000" stroke-width="0.3" />
<path d="M215.6845,254.11137 L201.49431,255.1701 L201.4322,252.41271 Z" fill="#c80000" fill-opacity="0.7843137254901961" stroke="#000000" stroke-width="0.3" />
<path d="M201.49431,255.1701 L187.08798,254.32489 L187.62453,251.60165 Z" fill="#c80000" fill-opacity="0.7843137254901961" stroke="#000000" stroke-width="0.3" />
<path d="M230.12764,252.33327 L243.55961,247.54269 L243.9726,247.56121 Z" fill="#c80000" fill-opacity="0.7843137254901961" stroke="#000000" stroke-width="0.3" />
<path d="M256.73609,240.33224 L244.03712,246.97308 L243.9726,247.56121 Z" fill="#eb0000" fill-opacity="0.5882352941176471" stroke="#000000" stroke-width="0.3" />
<path d="M243.55961,247.54269 L230.12764,252.33327 L229.4495,251.21218 Z" fill="#c80000" fill-opacity="0.7843137254901961" stroke="#000000" stroke-width="0.3" />
<path d="M229.4495,251.21218 L215.6845,254.11137 L215.03173,251.39673 Z" fill="#c80000" fill-opacity="0.7843137254901961" stroke="#000000" stroke-width="0.3" />
<path d="M187.62453,251.60165 L201.4322,252.41271 L201.49431,255.1701 Z" fill="#c80000" fill-opacity="0.7843137254901961" stroke="#000000" stroke-width="0.3" />
<path d="M158.44802,246.62913 L172.67068,251.50505 L172.04141,252.63262 Z" fill="#c80000" fill-opacity="0.7843137254901961" stroke="#000000" stroke-width="0.3" />
<path d="M201.4322,252.41271 L215.03173,251.39673 L215.6845,254.11137 Z" fill="#c80000" fill-opacity="0.7843137254901961" stroke="#000000" stroke-width="0.3" />
<path d="M172.04141,252.63262 L157.48941,247.6466 L158.44802,246.62913 Z" fill="#c80000" fill-opacity="0.7843137254901961" stroke="#000000" stroke-width="0.3" />
<path d="M187.08798,254.32489 L172.67068,251.50505 L173.80784,248.89634 Z" fill="#c80000" fill-opacity="0.7843137254901961" stroke="#000000" stroke-width="0.3" />
<path d="M173.80784,248.89634 L187.62453,251.60165 L187.08798,254.32489 Z" fill="#c80000" fill-opacity="0.7843137254901961" stroke="#000000" stroke-width="0.3" />
<path d="M256.65244,240.93142 L243.9726,247.56121 L243.55961,247.54269 Z" fill="#c80000" fill-opacity="0.7843137254901961" stroke="#000000" stroke-width="0.3" />
<path d="M243.9726,247.56121 L256.65244,240.93142 L256.73609,240.33224 Z" fill="#eb0000" fill-opacity="0.5882352941176471" stroke="#000000" stroke-width="0.3" />
<path d="M229.4495,251.21218 L242.57742,246.52772 L243.55961,247.54269 Z" fill="#c80000" fill-opacity="0.7843137254901961" stroke="#000000" stroke-width="0.3" />
<path d="M215.03173,251.39673 L228.22344,248.61505 L229.4495,251.21218 Z" fill="#c80000" fill-opacity="0.7843137254901961" stroke="#000000" stroke-width="0.3" />
<path d="M242.57742,246.52772 L229.4495,251.21218 L228.22344,248.61505 Z" fill="#c80000" fill-opacity="0.7843137254901961" stroke="#000000" stroke-width="0.3" />
<path d="M215.03173,251.39673 L201.4322,252.41271 L201.33392,247.6577 Z" fill="#c80000" fill-opacity="0.7843137254901961" stroke="#000000" stroke-width="0.3" />
<path d="M201.4322,252.41271 L187.62453,251.60165 L188.47096,246.90115 Z" fill="#c80000" fill-opacity="0.7843137254901961" stroke="#000000" stroke-width="0.3" />
<path d="M256.11932,240.97517 L243.55961,247.54269 L242.57742,246.52772 Z" fill="#c80000" fill-opacity="0.7843137254901961" stroke="#000000" stroke-width="0.3" />
<path d="M243.55961,247.54269 L256.11932,240.97517 L256.65244,240.93142 Z" fill="#c80000" fill-opacity="0.7843137254901961" stroke="#000000" stroke-width="0.3" />
<path d="M172.67068,251.50505 L158.44802,246.62913 L160.18063,244.21915 Z" fill="#c80000" fill-opacity="0.7843137254901961" stroke="#000000" stroke-width="0.3" />
<path d="M160.18063,244.21915 L173.80784,248.89634 L172.67068,251.50505 Z" fill="#c80000" fill-opacity="0.7843137254901961" stroke="#000000" stroke-width="0.3" />
<path d="M228.22344,248.61505 L215.03173,251.39673 L214.00431,246.70999 Z" fill="#c80000" fill-opacity="0.7843137254901961" stroke="#000000" stroke-width="0.3" />
<path d="M268.32264,231.9378 L256.73609,240.33224 L256.65244,240.93142 Z" fill="#f50000" fill-opacity="0.5882352941176471" stroke="#000000" stroke-width="0.3" />
<path d="M187.62453,251.60165 L173.80784,248.89634 L175.60098,244.37603 Z" fill="#c80000" fill-opacity="0.7843137254901961" stroke="#000000" stroke-width="0.3" />
<path d="M188.47096,246.90115 L201.33392,247.6577 L201.4322,252.41271 Z" fill="#c80000" fill-opacity="0.7843137254901961" stroke="#000000" stroke-width="0.3" />
<path d="M228.22344,248.61505 L240.80229,244.12138 L242.57742,246.52772 Z" fill="#c80000" fill-opacity="0.7843137254901961" stroke="#000000" stroke-width="0.3" />
<path d="M201.33392,247.6577 L214.00431,246.70999 L215.03173,251.39673 Z" fill="#c80000" fill-opacity="0.7843137254901961" stroke="#000000" stroke-width="0.3" />
<path d="M175.60098,244.37603 L188.47096,246.90115 L187.62453,251.60165 Z" fill="#c80000" fill-opacity="0.7843137254901961" stroke="#000000" stroke-width="0.3" />
<path d="M242.57742,246.52772 L254.85111,240.10652 L256.11932,240.97517 Z" fill="#c80000" fill-opacity="0.7843137254901961" stroke="#000000" stroke-width="0.3" />
<path d="M268.22192,232.55097 L256.65244,240.93142 L256.11932,240.97517 Z" fill="#c80000" fill-opacity="0.7843137254901961" stroke="#000000" stroke-width="0.3" />
<path d="M254.85111,240.10652 L242.57742,246.52772 L240.80229,244.12138 Z" fill="#c80000" fill-opacity="0.7843137254901961" stroke="#000000" stroke-width="0.3" />
<path d="M214.00431,246.70999 L226.29168,244.11434 L228.22344,248.61505 Z" fill="#c80000" fill-opacity="0.7843137254901961" stroke="#000000" stroke-width="0.3" />
<path d="M240.80229,244.12138 L228.22344,248.61505 L226.29168,244.11434 Z" fill="#c80000" fill-opacity="0.7843137254901961" stroke="#000000" stroke-width="0.3" />
<path d="M256.65244,240.93142 L268.22192,232.55097 L268.32264,231.9378 Z" fill="#f50000" fill-opacity="0.5882352941176471" stroke="#000000" stroke-width="0.3" />
<path d="M173.80784,248.89634 L160.18063,244.21915 L162.91056,240.01237 Z" fill="#c80000" fill-opacity="0.7843137254901961" stroke="#000000" stroke-width="0.3" />
<path d="M162.91056,240.01237 L175.60098,244.37603 L173.80784,248.89634 Z" fill="#c80000" fill-opacity="0.7843137254901961" stroke="#000000" stroke-width="0.3" />
<path d="M267.5777,232.67415 L256.11932,240.97517 L254.85111,240.10652 Z" fill="#c80000" fill-opacity="0.7843137254901961" stroke="#000000" stroke-width="0.3" />
<path d="M214.00431,246.70999 L201.33392,247.6577 L201.19221,240.44284 Z" fill="#c80000" fill-opacity="0.7843137254901961" stroke="#000000" stroke-width="0.3" />
<path d="M201.33392,247.6577 L188.47096,246.90115 L189.69764,239.76495 Z" fill="#c80000" fill-opacity="0.7843137254901961" stroke="#000000" stroke-width="0.3" />
<path d="M256.11932,240.97517 L267.5777,232.67415 L268.22192,232.55097 Z" fill="#c80000" fill-opacity="0.7843137254901961" stroke="#000000" stroke-width="0.3" />
<path d="M240.80229,244.12138 L252.55837,237.96328 L254.85111,240.10652 Z" fill="#c80000" fill-opacity="0.7843137254901961" stroke="#000000" stroke-width="0.3" />
<path d="M226.29168,244.11434 L238.00446,239.92133 L240.80229,244.12138 Z" fill="#c80000" fill-opacity="0.7843137254901961" stroke="#000000" stroke-width="0.3" />
<path d="M226.29168,244.11434 L214.00431,246.70999 L212.51367,239.59351 Z" fill="#c80000" fill-opacity="0.7843137254901961" stroke="#000000" stroke-width="0.3" />
<path d="M188.47096,246.90115 L175.60098,244.37603 L178.20014,237.50266 Z" fill="#c80000" fill-opacity="0.7843137254901961" stroke="#000000" stroke-width="0.3" />
<path d="M252.55837,237.96328 L240.80229,244.12138 L238.00446,239.92133 Z" fill="#c80000" fill-opacity="0.7843137254901961" stroke="#000000" stroke-width="0.3" />
<path d="M189.69764,239.76495 L201.19221,240.44284 L201.33392,247.6577 Z" fill="#c80000" fill-opacity="0.7843137254901961" stroke="#000000" stroke-width="0.3" />
<path d="M278.55689,221.82729 L268.32264,231.9378 L268.22192,232.55097 Z" fill="#fa0000" fill-opacity="0.5882352941176471" stroke="#000000" stroke-width="0.3" />
<path d="M201.19221,240.44284 L212.51367,239.59351 L214.00431,246.70999 Z" fill="#c80000" fill-opacity="0.7843137254901961" stroke="#000000" stroke-width="0.3" />
<path d="M266.0453,231.9911 L254.85111,240.10652 L252.55837,237.96328 Z" fill="#c80000" fill-opacity="0.7843137254901961" stroke="#000000" stroke-width="0.3" />
<path d="M254.85111,240.10652 L266.0453,231.9911 L267.5777,232.67415 Z" fill="#c80000" fill-opacity="0.7843137254901961" stroke="#000000" stroke-width="0.3" />
<path d="M178.20014,237.50266 L189.69764,239.76495 L188.47096,246.90115 Z" fill="#c80000" fill-opacity="0.7843137254901961" stroke="#000000" stroke-width="0.3" />
<path d="M238.00446,239.92133 L226.29168,244.11434 L223.49051,237.26824 Z" fill="#c80000" fill-opacity="0.7843137254901961" stroke="#000000" stroke-width="0.3" />
<path d="M212.51367,239.59351 L223.49051,237.26824 L226.29168,244.11434 Z" fill="#c80000" fill-opacity="0.7843137254901961" stroke="#000000" stroke-width="0.3" />
<path d="M278.44062,222.45805 L268.22192,232.55097 L267.5777,232.67415 Z" fill="#c80000" fill-opacity="0.7843137254901961" stroke="#000000" stroke-width="0.3" />
<path d="M175.60098,244.37603 L162.91056,240.01237 L166.86791,233.59392 Z" fill="#c80000" fill-opacity="0.7843137254901961" stroke="#000000" stroke-width="0.3" />
<path d="M238.00446,239.92133 L248.94682,234.17616 L252.55837,237.96328 Z" fill="#c80000" fill-opacity="0.7843137254901961" stroke="#000000" stroke-width="0.3" />
<path d="M166.86791,233.59392 L178.20014,237.50266 L175.60098,244.37603 Z" fill="#c80000" fill-opacity="0.7843137254901961" stroke="#000000" stroke-width="0.3" />
<path d="M268.22192,232.55097 L278.44062,222.45805 L278.55689,221.82729 Z" fill="#fa0000" fill-opacity="0.5882352941176471" stroke="#000000" stroke-width="0.3" />
<path d="M252.55837,237.96328 L263.27651,230.18138 L266.0453,231.9911 Z" fill="#c80000" fill-opacity="0.7843137254901961" stroke="#000000" stroke-width="0.3" />
<path d="M277.69736,222.67755 L267.5777,232.67415 L266.0453,231.9911 Z" fill="#c80000" fill-opacity="0.7843137254901961" stroke="#000000" stroke-width="0.3" />
<path d="M263.27651,230.18138 L252.55837,237.96328 L248.94682,234.17616 Z" fill="#c80000" fill-opacity="0.7843137254901961" stroke="#000000" stroke-width="0.3" />
<path d="M223.49051,237.26824 L233.94929,233.5125 L238.00446,239.92133 Z" fill="#c80000" fill-opacity="0.7843137254901961" stroke="#000000" stroke-width="0.3" />
<path d="M248.94682,234.17616 L238.00446,239.92133 L233.94929,233.5125 Z" fill="#c80000" fill-opacity="0.7843137254901961" stroke="#000000" stroke-width="0.3" />
<path d="M267.5777,232.67415 L277.69736,222.67755 L278.44062,222.45805 Z" fill="#c80000" fill-opacity="0.7843137254901961" stroke="#000000" stroke-width="0.3" />
<path d="M212.51367,239.59351 L201.19221,240.44284 L200.99768,230.28191 Z" fill="#c80000" fill-opacity="0.7843137254901961" stroke="#000000" stroke-width="0.3" />
<path d="M201.19221,240.44284 L189.69764,239.76495 L191.38097,229.71225 Z" fill="#c80000" fill-opacity="0.7843137254901961" stroke="#000000" stroke-width="0.3" />
<path d="M223.49051,237.26824 L212.51367,239.59351 L210.46849,229.56818 Z" fill="#c80000" fill-opacity="0.7843137254901961" stroke="#000000" stroke-width="0.3" />
<path d="M189.69764,239.76495 L178.20014,237.50266 L181.76434,227.81246 Z" fill="#c80000" fill-opacity="0.7843137254901961" stroke="#000000" stroke-width="0.3" />
<path d="M275.92881,222.21898 L266.0453,231.9911 L263.27651,230.18138 Z" fill="#c80000" fill-opacity="0.7843137254901961" stroke="#000000" stroke-width="0.3" />
<path d="M266.0453,231.9911 L275.92881,222.21898 L277.69736,222.67755 Z" fill="#c80000" fill-opacity="0.7843137254901961" stroke="#000000" stroke-width="0.3" />
<path d="M248.94682,234.17616 L258.9161,226.92056 L263.27651,230.18138 Z" fill="#c80000" fill-opacity="0.7843137254901961" stroke="#000000" stroke-width="0.3" />
<path d="M233.94929,233.5125 L243.7137,228.36899 L248.94682,234.17616 Z" fill="#c80000" fill-opacity="0.7843137254901961" stroke="#000000" stroke-width="0.3" />
<path d="M287.18915,210.03321 L278.55689,221.82729 L278.44062,222.45805 Z" fill="#f80000" fill-opacity="0.5882352941176471" stroke="#000000" stroke-width="0.3" />
<path d="M191.38097,229.71225 L200.99768,230.28191 L201.19221,240.44284 Z" fill="#c80000" fill-opacity="0.7843137254901961" stroke="#000000" stroke-width="0.3" />
<path d="M233.94929,233.5125 L223.49051,237.26824 L219.64924,227.61519 Z" fill="#c80000" fill-opacity="0.7843137254901961" stroke="#000000" stroke-width="0.3" />
<path d="M200.99768,230.28191 L210.46849,229.56818 L212.51367,239.59351 Z" fill="#c80000" fill-opacity="0.7843137254901961" stroke="#000000" stroke-width="0.3" />
<path d="M178.20014,237.50266 L166.86791,233.59392 L172.29219,224.53106 Z" fill="#c80000" fill-opacity="0.7843137254901961" stroke="#000000" stroke-width="0.3" />
<path d="M181.76434,227.81246 L191.38097,229.71225 L189.69764,239.76495 Z" fill="#c80000" fill-opacity="0.7843137254901961" stroke="#000000" stroke-width="0.3" />
<path d="M258.9161,226.92056 L248.94682,234.17616 L243.7137,228.36899 Z" fill="#c80000" fill-opacity="0.7843137254901961" stroke="#000000" stroke-width="0.3" />
<path d="M210.46849,229.56818 L219.64924,227.61519 L223.49051,237.26824 Z" fill="#c80000" fill-opacity="0.7843137254901961" stroke="#000000" stroke-width="0.3" />
<path d="M287.0592,210.68433 L278.44062,222.45805 L277.69736,222.67755 Z" fill="#c80000" fill-opacity="0.7843137254901961" stroke="#000000" stroke-width="0.3" />
<path d="M263.27651,230.18138 L272.73421,220.8139 L275.92881,222.21898 Z" fill="#c80000" fill-opacity="0.7843137254901961" stroke="#000000" stroke-width="0.3" />
<path d="M272.73421,220.8139 L263.27651,230.18138 L258.9161,226.92056 Z" fill="#c80000" fill-opacity="0.7843137254901961" stroke="#000000" stroke-width="0.3" />
<path d="M172.29219,224.53106 L181.76434,227.81246 L178.20014,237.50266 Z" fill="#c80000" fill-opacity="0.7843137254901961" stroke="#000000" stroke-width="0.3" />
<path d="M243.7137,228.36899 L233.94929,233.5125 L228.39164,224.46273 Z" fill="#c80000" fill-opacity="0.7843137254901961" stroke="#000000" stroke-width="0.3" />
<path d="M278.44062,222.45805 L287.0592,210.68433 L287.18915,210.03321 Z" fill="#f80000" fill-opacity="0.5882352941176471" stroke="#000000" stroke-width="0.3" />
<path d="M219.64924,227.61519 L228.39164,224.46273 L233.94929,233.5125 Z" fill="#c80000" fill-opacity="0.7843137254901961" stroke="#000000" stroke-width="0.3" />
<path d="M286.23073,211.01684 L277.69736,222.67755 L275.92881,222.21898 Z" fill="#c80000" fill-opacity="0.7843137254901961" stroke="#000000" stroke-width="0.3" />
<path d="M243.7137,228.36899 L252.60201,221.87615 L258.9161,226.92056 Z" fill="#c80000" fill-opacity="0.7843137254901961" stroke="#000000" stroke-width="0.3" />
<path d="M277.69736,222.67755 L286.23073,211.01684 L287.0592,210.68433 Z" fill="#c80000" fill-opacity="0.7843137254901961" stroke="#000000" stroke-width="0.3" />
<path d="M258.9161,226.92056 L267.70479,218.18959 L272.73421,220.8139 Z" fill="#c80000" fill-opacity="0.7843137254901961" stroke="#000000" stroke-width="0.3" />
<path d="M284.2592,210.82272 L275.92881,222.21898 L272.73421,220.8139 Z" fill="#c80000" fill-opacity="0.7843137254901961" stroke="#000000" stroke-width="0.3" />
<path d="M267.70479,218.18959 L258.9161,226.92056 L252.60201,221.87615 Z" fill="#c80000" fill-opacity="0.7843137254901961" stroke="#000000" stroke-width="0.3" />
<path d="M210.46849,229.56818 L200.99768,230.28191 L200.74037,216.65805 Z" fill="#c80000" fill-opacity="0.7843137254901961" stroke="#000000" stroke-width="0.3" />
<path d="M200.99768,230.28191 L191.38097,229.71225 L193.6004,216.23276 Z" fill="#c80000" fill-opacity="0.7843137254901961" stroke="#000000" stroke-width="0.3" />
<path d="M228.39164,224.46273 L236.54525,220.14835 L243.7137,228.36899 Z" fill="#c80000" fill-opacity="0.7843137254901961" stroke="#000000" stroke-width="0.3" />
<path d="M252.60201,221.87615 L243.7137,228.36899 L236.54525,220.14835 Z" fill="#c80000" fill-opacity="0.7843137254901961" stroke="#000000" stroke-width="0.3" />
<path d="M275.92881,222.21898 L284.2592,210.82272 L286.23073,211.01684 Z" fill="#c80000" fill-opacity="0.7843137254901961" stroke="#000000" stroke-width="0.3" />
<path d="M219.64924,227.61519 L210.46849,229.56818 L207.77287,216.12554 Z" fill="#c80000" fill-opacity="0.7843137254901961" stroke="#000000" stroke-width="0.3" />
<path d="M191.38097,229.71225 L181.76434,227.81246 L186.46228,214.81505 Z" fill="#c80000" fill-opacity="0.7843137254901961" stroke="#000000" stroke-width="0.3" />
<path d="M228.39164,224.46273 L219.64924,227.61519 L214.58707,214.66799 Z" fill="#c80000" fill-opacity="0.7843137254901961" stroke="#000000" stroke-width="0.3" />
<path d="M280.69904,209.89356 L272.73421,220.8139 L267.70479,218.18959 Z" fill="#c80000" fill-opacity="0.7843137254901961" stroke="#000000" stroke-width="0.3" />
<path d="M181.76434,227.81246 L172.29219,224.53106 L179.43662,212.36793 Z" fill="#c80000" fill-opacity="0.7843137254901961" stroke="#000000" stroke-width="0.3" />
<path d="M272.73421,220.8139 L280.69904,209.89356 L284.2592,210.82272 Z" fill="#c80000" fill-opacity="0.7843137254901961" stroke="#000000" stroke-width="0.3" />
<path d="M252.60201,221.87615 L260.42675,214.06883 L267.70479,218.18959 Z" fill="#c80000" fill-opacity="0.7843137254901961" stroke="#000000" stroke-width="0.3" />
<path d="M193.6004,216.23276 L200.74037,216.65805 L200.99768,230.28191 Z" fill="#c80000" fill-opacity="0.7843137254901961" stroke="#000000" stroke-width="0.3" />
<path d="M200.74037,216.65805 L207.77287,216.12554 L210.46849,229.56818 Z" fill="#c80000" fill-opacity="0.7843137254901961" stroke="#000000" stroke-width="0.3" />
<path d="M236.54525,220.14835 L243.95783,214.70497 L252.60201,221.87615 Z" fill="#c80000" fill-opacity="0.7843137254901961" stroke="#000000" stroke-width="0.3" />
<path d="M186.46228,214.81505 L193.6004,216.23276 L191.38097,229.71225 Z" fill="#c80000" fill-opacity="0.7843137254901961" stroke="#000000" stroke-width="0.3" />
<path d="M207.77287,216.12554 L214.58707,214.66799 L219.64924,227.61519 Z" fill="#c80000" fill-opacity="0.7843137254901961" stroke="#000000" stroke-width="0.3" />
<path d="M236.54525,220.14835 L228.39164,224.46273 L221.07086,212.31681 Z" fill="#c80000" fill-opacity="0.7843137254901961" stroke="#000000" stroke-width="0.3" />
<path d="M260.42675,214.06883 L252.60201,221.87615 L243.95783,214.70497 Z" fill="#c80000" fill-opacity="0.7843137254901961" stroke="#000000" stroke-width="0.3" />
<path d="M179.43662,212.36793 L186.46228,214.81505 L181.76434,227.81246 Z" fill="#c80000" fill-opacity="0.7843137254901961" stroke="#000000" stroke-width="0.3" />
<path d="M267.70479,218.18959 L275.09794,208.01711 L280.69904,209.89356 Z" fill="#c80000" fill-opacity="0.7843137254901961" stroke="#000000" stroke-width="0.3" />
<path d="M275.09794,208.01711 L267.70479,218.18959 L260.42675,214.06883 Z" fill="#c80000" fill-opacity="0.7843137254901961" stroke="#000000" stroke-width="0.3" />
<path d="M214.58707,214.66799 L221.07086,212.31681 L228.39164,224.46273 Z" fill="#c80000" fill-opacity="0.7843137254901961" stroke="#000000" stroke-width="0.3" />
<path d="M243.95783,214.70497 L236.54525,220.14835 L227.11047,209.10099 Z" fill="#c80000" fill-opacity="0.7843137254901961" stroke="#000000" stroke-width="0.3" />
<path d="M221.07086,212.31681 L227.11047,209.10099 L236.54525,220.14835 Z" fill="#c80000" fill-opacity="0.7843137254901961" stroke="#000000" stroke-width="0.3" />
<path d="M243.95783,214.70497 L250.47203,208.16571 L260.42675,214.06883 Z" fill="#c80000" fill-opacity="0.7843137254901961" stroke="#000000" stroke-width="0.3" />
<path d="M260.42675,214.06883 L266.99661,204.97926 L275.09794,208.01711 Z" fill="#c80000" fill-opacity="0.7843137254901961" stroke="#000000" stroke-width="0.3" />
<path d="M266.99661,204.97926 L260.42675,214.06883 L250.47203,208.16571 Z" fill="#c80000" fill-opacity="0.7843137254901961" stroke="#000000" stroke-width="0.3" />
<path d="M207.77287,216.12554 L200.74037,216.65805 L200.41221,199.01323 Z" fill="#c80000" fill-opacity="0.7843137254901961" stroke="#000000" stroke-width="0.3" />
<path d="M200.74037,216.65805 L193.6004,216.23276 L196.44123,198.77525 Z" fill="#c80000" fill-opacity="0.7843137254901961" stroke="#000000" stroke-width="0.3" />
<path d="M250.47203,208.16571 L243.95783,214.70497 L232.59104,205.04834 Z" fill="#c80000" fill-opacity="0.7843137254901961" stroke="#000000" stroke-width="0.3" />
<path d="M227.11047,209.10099 L232.59104,205.04834 L243.95783,214.70497 Z" fill="#c80000" fill-opacity="0.7843137254901961" stroke="#000000" stroke-width="0.3" />
<path d="M214.58707,214.66799 L207.77287,216.12554 L204.3219,198.71492 Z" fill="#c80000" fill-opacity="0.7843137254901961" stroke="#000000" stroke-width="0.3" />
<path d="M193.6004,216.23276 L186.46228,214.81505 L192.47471,197.98183 Z" fill="#c80000" fill-opacity="0.7843137254901961" stroke="#000000" stroke-width="0.3" />
<path d="M221.07086,212.31681 L214.58707,214.66799 L208.1088,197.90007 Z" fill="#c80000" fill-opacity="0.7843137254901961" stroke="#000000" stroke-width="0.3" />
<path d="M186.46228,214.81505 L179.43662,212.36793 L188.57389,196.6131 Z" fill="#c80000" fill-opacity="0.7843137254901961" stroke="#000000" stroke-width="0.3" />
<path d="M250.47203,208.16571 L255.92693,200.56071 L266.99661,204.97926 Z" fill="#c80000" fill-opacity="0.7843137254901961" stroke="#000000" stroke-width="0.3" />
<path d="M227.11047,209.10099 L221.07086,212.31681 L211.70786,196.58454 Z" fill="#c80000" fill-opacity="0.7843137254901961" stroke="#000000" stroke-width="0.3" />
<path d="M232.59104,205.04834 L237.39662,200.18516 L250.47203,208.16571 Z" fill="#c80000" fill-opacity="0.7843137254901961" stroke="#000000" stroke-width="0.3" />
<path d="M196.44123,198.77525 L200.41221,199.01323 L200.74037,216.65805 Z" fill="#c80000" fill-opacity="0.7843137254901961" stroke="#000000" stroke-width="0.3" />
<path d="M200.41221,199.01323 L204.3219,198.71492 L207.77287,216.12554 Z" fill="#c80000" fill-opacity="0.7843137254901961" stroke="#000000" stroke-width="0.3" />
<path d="M255.92693,200.56071 L250.47203,208.16571 L237.39662,200.18516 Z" fill="#c80000" fill-opacity="0.7843137254901961" stroke="#000000" stroke-width="0.3" />
<path d="M192.47471,197.98183 L196.44123,198.77525 L193.6004,216.23276 Z" fill="#c80000" fill-opacity="0.7843137254901961" stroke="#000000" stroke-width="0.3" />
<path d="M204.3219,198.71492 L208.1088,197.90007 L214.58707,214.66799 Z" fill="#c80000" fill-opacity="0.7843137254901961" stroke="#000000" stroke-width="0.3" />
<path d="M232.59104,205.04834 L227.11047,209.10099 L215.05535,194.78828 Z" fill="#c80000" fill-opacity="0.7843137254901961" stroke="#000000" stroke-width="0.3" />
<path d="M188.57389,196.6131 L192.47471,197.98183 L186.46228,214.81505 Z" fill="#c80000" fill-opacity="0.7843137254901961" stroke="#000000" stroke-width="0.3" />
<path d="M208.1088,197.90007 L211.70786,196.58454 L221.07086,212.31681 Z" fill="#c80000" fill-opacity="0.7843137254901961" stroke="#000000" stroke-width="0.3" />
<path d="M211.70786,196.58454 L215.05535,194.78828 L227.11047,209.10099 Z" fill="#c80000" fill-opacity="0.7843137254901961" stroke="#000000" stroke-width="0.3" />
<path d="M237.39662,200.18516 L232.59104,205.04834 L218.08734,192.52645 Z" fill="#c80000" fill-opacity="0.7843137254901961" stroke="#000000" stroke-width="0.3" />
<path d="M237.39662,200.18516 L241.40771,194.53744 L255.92693,200.56071 Z" fill="#c80000" fill-opacity="0.7843137254901961" stroke="#000000" stroke-width="0.3" />
<path d="M215.05535,194.78828 L218.08734,192.52645 L232.59104,205.04834 Z" fill="#c80000" fill-opacity="0.7843137254901961" stroke="#000000" stroke-width="0.3" />
<path d="M241.40771,194.53744 L237.39662,200.18516 L220.73659,189.81716 Z" fill="#c80000" fill-opacity="0.7843137254901961" stroke="#000000" stroke-width="0.3" />
<path d="M218.08734,192.52645 L220.73659,189.81716 L237.39662,200.18516 Z" fill="#c80000" fill-opacity="0.7843137254901961" stroke="#000000" stroke-width="0.3" />
<path d="M200.41221,199.01323 L196.44123,198.77525 L200.0,176.73339 Z" fill="#c80000" fill-opacity="0.7843137254901961" stroke="#000000" stroke-width="0.3" />
<path d="M204.3219,198.71492 L200.41221,199.01323 L200.0,176.73339 Z" fill="#c80000" fill-opacity="0.7843137254901961" stroke="#000000" stroke-width="0.3" />
<path d="M196.44123,198.77525 L192.47471,197.98183 L200.0,176.73339 Z" fill="#c80000" fill-opacity="0.7843137254901961" stroke="#000000" stroke-width="0.3" />
<path d="M208.1088,197.90007 L204.3219,198.71492 L200.0,176.73339 Z" fill="#c80000" fill-opacity="0.7843137254901961" stroke="#000000" stroke-width="0.3" />
<path d="M220.73659,189.81716 L222.9387,186.67589 L241.40771,194.53744 Z" fill="#c80000" fill-opacity="0.7843137254901961" stroke="#000000" stroke-width="0.3" />
<path d="M192.47471,197.98183 L188.57389,196.6131 L200.0,176.73339 Z" fill="#c80000" fill-opacity="0.7843137254901961" stroke="#000000" stroke-width="0.3" />
<path d="M211.70786,196.58454 L208.1088,197.90007 L200.0,176.73339 Z" fill="#c80000" fill-opacity="0.7843137254901961" stroke="#000000" stroke-width="0.3" />
<path d="M215.05535,194.78828 L211.70786,196.58454 L200.0,176.73339 Z" fill="#c80000" fill-opacity="0.7843137254901961" stroke="#000000" stroke-width="0.3" />
<path d="M218.08734,192.52645 L215.05535,194.78828 L200.0,176.73339 Z" fill="#c80000" fill-opacity="0.7843137254901961" stroke="#000000" stroke-width="0.3" />
<path d="M220.73659,189.81716 L218.08734,192.52645 L200.0,176.73339 Z" fill="#c80000" fill-opacity="0.7843137254901961" stroke="#000000" stroke-width="0.3" />
<path d="M222.9387,186.67589 L220.73659,189.81716 L200.0,176.73339 Z" fill="#c80000" fill-opacity="0.7843137254901961" stroke="#000000" stroke-width="0.3" />
</svg>