<?xml version="1.0" encoding="UTF-8"?>
<svg xmlns="http://www.w3.org/2000/svg" xmlns:xlink="http://www.w3.org/1999/xlink"
     width="400" height="400" viewBox="0 0 400 400">
<defs>
</defs>
<path d="M143.40487,240.72618 L157.08677,247.66573 L157.02362,247.07826 Z" fill="#230000" fill-opacity="0.5882352941176471" stroke="#000000" stroke-width="0.3" />
<path d="M157.02362,247.07826 L143.32144,240.12664 L143.40487,240.72618 Z" fill="#230000" fill-opacity="0.5882352941176471" stroke="#000000" stroke-width="0.3" />
<path d="M143.93728,240.77216 L157.48941,247.6466 L157.08677,247.66573 Z" fill="#c80000" fill-opacity="0.7843137254901961" stroke="#000000" stroke-width="0.3" />
<path d="M157.08677,247.66573 L143.40487,240.72618 L143.93728,240.77216 Z" fill="#c80000" fill-opacity="0.7843137254901961" stroke="#000000" stroke-width="0.3" />
<path d="M145.20462,239.90758 L158.44802,246.62913 L157.48941,247.6466 Z" fill="#c80000" fill-opacity="0.7843137254901961" stroke="#000000" stroke-width="0.3" />
<path d="M157.48941,247.6466 L143.93728,240.77216 L145.20462,239.90758 Z" fill="#c80000" fill-opacity="0.7843137254901961" stroke="#000000" stroke-width="0.3" />
<path d="M131.45361,232.2798 L143.40487,240.72618 L143.32144,240.12664 Z" fill="#000000" fill-opacity="0.5882352941176471" stroke="#000000" stroke-width="0.3" />
<path d="M143.32144,240.12664 L131.35199,231.66581 L131.45361,232.2798 Z" fill="#000000" fill-opacity="0.5882352941176471" stroke="#000000" stroke-width="0.3" />
<path d="M132.10081,232.40542 L143.93728,240.77216 L143.40487,240.72618 Z" fill="#c80000" fill-opacity="0.7843137254901961" stroke="#000000" stroke-width="0.3" />
<path d="M147.49551,237.77268 L160.18063,244.21915 L158.44802,246.62913 Z" fill="#c80000" fill-opacity="0.7843137254901961" stroke="#000000" stroke-width="0.3" />
<path d="M158.44802,246.62913 L145.20462,239.90758 L147.49551,237.77268 Z" fill="#c80000" fill-opacity="0.7843137254901961" stroke="#000000" stroke-width="0.3" />
<path d="M143.40487,240.72618 L131.45361,232.2798 L132.10081,232.40542 Z" fill="#c80000" fill-opacity="0.7843137254901961" stroke="#000000" stroke-width="0.3" />
<path d="M133.64004,231.72788 L145.20462,239.90758 L143.93728,240.77216 Z" fill="#c80000" fill-opacity="0.7843137254901961" stroke="#000000" stroke-width="0.3" />
<path d="M143.93728,240.77216 L132.10081,232.40542 L133.64004,231.72788 Z" fill="#c80000" fill-opacity="0.7843137254901961" stroke="#000000" stroke-width="0.3" />
<path d="M160.18063,244.21915 L147.49551,237.77268 L151.10366,233.99843 Z" fill="#c80000" fill-opacity="0.7843137254901961" stroke="#000000" stroke-width="0.3" />
<path d="M151.10366,233.99843 L162.91056,240.01237 L160.18063,244.21915 Z" fill="#c80000" fill-opacity="0.7843137254901961" stroke="#000000" stroke-width="0.3" />
<path d="M121.31834,222.51146 L131.45361,232.2798 L131.35199,231.66581 Z" fill="#000000" fill-opacity="0.5882352941176471" stroke="#000000" stroke-width="0.3" />
<path d="M136.42277,229.92943 L147.49551,237.77268 L145.20462,239.90758 Z" fill="#c80000" fill-opacity="0.7843137254901961" stroke="#000000" stroke-width="0.3" />
<path d="M145.20462,239.90758 L133.64004,231.72788 L136.42277,229.92943 Z" fill="#c80000" fill-opacity="0.7843137254901961" stroke="#000000" stroke-width="0.3" />
<path d="M131.35199,231.66581 L121.20171,221.88091 L121.31834,222.51146 Z" fill="#000000" fill-opacity="0.5882352941176471" stroke="#000000" stroke-width="0.3" />
<path d="M122.06422,222.73026 L132.10081,232.40542 L131.45361,232.2798 Z" fill="#c80000" fill-opacity="0.7843137254901961" stroke="#000000" stroke-width="0.3" />
<path d="M131.45361,232.2798 L121.31834,222.51146 L122.06422,222.73026 Z" fill="#c80000" fill-opacity="0.7843137254901961" stroke="#000000" stroke-width="0.3" />
<path d="M123.83763,222.27077 L133.64004,231.72788 L132.10081,232.40542 Z" fill="#c80000" fill-opacity="0.7843137254901961" stroke="#000000" stroke-width="0.3" />
<path d="M140.80397,226.68539 L151.10366,233.99843 L147.49551,237.77268 Z" fill="#c80000" fill-opacity="0.7843137254901961" stroke="#000000" stroke-width="0.3" />
<path d="M162.91056,240.01237 L151.10366,233.99843 L156.33152,228.20996 Z" fill="#c80000" fill-opacity="0.7843137254901961" stroke="#000000" stroke-width="0.3" />
<path d="M147.49551,237.77268 L136.42277,229.92943 L140.80397,226.68539 Z" fill="#c80000" fill-opacity="0.7843137254901961" stroke="#000000" stroke-width="0.3" />
<path d="M156.33152,228.20996 L166.86791,233.59392 L162.91056,240.01237 Z" fill="#c80000" fill-opacity="0.7843137254901961" stroke="#000000" stroke-width="0.3" />
<path d="M132.10081,232.40542 L122.06422,222.73026 L123.83763,222.27077 Z" fill="#c80000" fill-opacity="0.7843137254901961" stroke="#000000" stroke-width="0.3" />
<path d="M127.04222,220.8638 L136.42277,229.92943 L133.64004,231.72788 Z" fill="#c80000" fill-opacity="0.7843137254901961" stroke="#000000" stroke-width="0.3" />
<path d="M113.09635,211.60849 L121.31834,222.51146 L121.20171,221.88091 Z" fill="#000000" fill-opacity="0.5882352941176471" stroke="#000000" stroke-width="0.3" />
<path d="M133.64004,231.72788 L123.83763,222.27077 L127.04222,220.8638 Z" fill="#c80000" fill-opacity="0.7843137254901961" stroke="#000000" stroke-width="0.3" />
<path d="M113.92347,211.93174 L122.06422,222.73026 L121.31834,222.51146 Z" fill="#c80000" fill-opacity="0.7843137254901961" stroke="#000000" stroke-width="0.3" />
<path d="M121.20171,221.88091 L112.96725,210.9588 L113.09635,211.60849 Z" fill="#000000" fill-opacity="0.5882352941176471" stroke="#000000" stroke-width="0.3" />
<path d="M151.10366,233.99843 L140.80397,226.68539 L147.14927,221.66636 Z" fill="#c80000" fill-opacity="0.7843137254901961" stroke="#000000" stroke-width="0.3" />
<path d="M147.14927,221.66636 L156.33152,228.20996 L151.10366,233.99843 Z" fill="#c80000" fill-opacity="0.7843137254901961" stroke="#000000" stroke-width="0.3" />
<path d="M132.08704,218.23613 L140.80397,226.68539 L136.42277,229.92943 Z" fill="#c80000" fill-opacity="0.7843137254901961" stroke="#000000" stroke-width="0.3" />
<path d="M121.31834,222.51146 L113.09635,211.60849 L113.92347,211.93174 Z" fill="#c80000" fill-opacity="0.7843137254901961" stroke="#000000" stroke-width="0.3" />
<path d="M115.89058,211.71688 L123.83763,222.27077 L122.06422,222.73026 Z" fill="#c80000" fill-opacity="0.7843137254901961" stroke="#000000" stroke-width="0.3" />
<path d="M166.86791,233.59392 L156.33152,228.20996 L163.49309,220.01473 Z" fill="#c80000" fill-opacity="0.7843137254901961" stroke="#000000" stroke-width="0.3" />
<path d="M136.42277,229.92943 L127.04222,220.8638 L132.08704,218.23613 Z" fill="#c80000" fill-opacity="0.7843137254901961" stroke="#000000" stroke-width="0.3" />
<path d="M163.49309,220.01473 L172.29219,224.53106 L166.86791,233.59392 Z" fill="#c80000" fill-opacity="0.7843137254901961" stroke="#000000" stroke-width="0.3" />
<path d="M122.06422,222.73026 L113.92347,211.93174 L115.89058,211.71688 Z" fill="#c80000" fill-opacity="0.7843137254901961" stroke="#000000" stroke-width="0.3" />
<path d="M119.44385,210.75051 L127.04222,220.8638 L123.83763,222.27077 Z" fill="#c80000" fill-opacity="0.7843137254901961" stroke="#000000" stroke-width="0.3" />
<path d="M139.3874,214.11028 L147.14927,221.66636 L140.80397,226.68539 Z" fill="#c80000" fill-opacity="0.7843137254901961" stroke="#000000" stroke-width="0.3" />
<path d="M140.80397,226.68539 L132.08704,218.23613 L139.3874,214.11028 Z" fill="#c80000" fill-opacity="0.7843137254901961" stroke="#000000" stroke-width="0.3" />
<path d="M123.83763,222.27077 L115.89058,211.71688 L119.44385,210.75051 Z" fill="#c80000" fill-opacity="0.7843137254901961" stroke="#000000" stroke-width="0.3" />
<path d="M106.8936,199.76034 L113.09635,211.60849 L112.96725,210.9588 Z" fill="#000000" fill-opacity="0.5882352941176471" stroke="#000000" stroke-width="0.3" />
<path d="M156.33152,228.20996 L147.14927,221.66636 L155.83477,214.52907 Z" fill="#c80000" fill-opacity="0.7843137254901961" stroke="#000000" stroke-width="0.3" />
<path d="M155.83477,214.52907 L163.49309,220.01473 L156.33152,228.20996 Z" fill="#c80000" fill-opacity="0.7843137254901961" stroke="#000000" stroke-width="0.3" />
<path d="M125.03311,208.81482 L132.08704,218.23613 L127.04222,220.8638 Z" fill="#c80000" fill-opacity="0.7843137254901961" stroke="#000000" stroke-width="0.3" />
<path d="M107.78364,200.19851 L113.92347,211.93174 L113.09635,211.60849 Z" fill="#c80000" fill-opacity="0.7843137254901961" stroke="#000000" stroke-width="0.3" />
<path d="M112.96725,210.9588 L106.75457,199.08996 L106.8936,199.76034 Z" fill="#000000" fill-opacity="0.5882352941176471" stroke="#000000" stroke-width="0.3" />
<path d="M127.04222,220.8638 L119.44385,210.75051 L125.03311,208.81482 Z" fill="#c80000" fill-opacity="0.7843137254901961" stroke="#000000" stroke-width="0.3" />
<path d="M109.90049,200.25197 L115.89058,211.71688 L113.92347,211.93174 Z" fill="#c80000" fill-opacity="0.7843137254901961" stroke="#000000" stroke-width="0.3" />
<path d="M172.29219,224.53106 L163.49309,220.01473 L172.91866,209.00151 Z" fill="#c80000" fill-opacity="0.7843137254901961" stroke="#000000" stroke-width="0.3" />
<path d="M113.09635,211.60849 L106.8936,199.76034 L107.78364,200.19851 Z" fill="#c80000" fill-opacity="0.7843137254901961" stroke="#000000" stroke-width="0.3" />
<path d="M147.14927,221.66636 L139.3874,214.11028 L149.37231,208.20056 Z" fill="#c80000" fill-opacity="0.7843137254901961" stroke="#000000" stroke-width="0.3" />
<path d="M149.37231,208.20056 L155.83477,214.52907 L147.14927,221.66636 Z" fill="#c80000" fill-opacity="0.7843137254901961" stroke="#000000" stroke-width="0.3" />
<path d="M133.11797,205.69172 L139.3874,214.11028 L132.08704,218.23613 Z" fill="#c80000" fill-opacity="0.7843137254901961" stroke="#000000" stroke-width="0.3" />
<path d="M113.92347,211.93174 L107.78364,200.19851 L109.90049,200.25197 Z" fill="#c80000" fill-opacity="0.7843137254901961" stroke="#000000" stroke-width="0.3" />
<path d="M172.91866,209.00151 L179.43662,212.36793 L172.29219,224.53106 Z" fill="#c80000" fill-opacity="0.7843137254901961" stroke="#000000" stroke-width="0.3" />
<path d="M113.72275,199.76741 L119.44385,210.75051 L115.89058,211.71688 Z" fill="#c80000" fill-opacity="0.7843137254901961" stroke="#000000" stroke-width="0.3" />
<path d="M132.08704,218.23613 L125.03311,208.81482 L133.11797,205.69172 Z" fill="#c80000" fill-opacity="0.7843137254901961" stroke="#000000" stroke-width="0.3" />
<path d="M163.49309,220.01473 L155.83477,214.52907 L167.25541,204.91714 Z" fill="#c80000" fill-opacity="0.7843137254901961" stroke="#000000" stroke-width="0.3" />
<path d="M115.89058,211.71688 L109.90049,200.25197 L113.72275,199.76741 Z" fill="#c80000" fill-opacity="0.7843137254901961" stroke="#000000" stroke-width="0.3" />
<path d="M102.82368,187.16274 L106.8936,199.76034 L106.75457,199.08996 Z" fill="#c80000" fill-opacity="0.7843137254901961" stroke="#000000" stroke-width="0.3" />
<path d="M119.73227,198.58965 L125.03311,208.81482 L119.44385,210.75051 Z" fill="#c80000" fill-opacity="0.7843137254901961" stroke="#000000" stroke-width="0.3" />
<path d="M167.25541,204.91714 L172.91866,209.00151 L163.49309,220.01473 Z" fill="#c80000" fill-opacity="0.7843137254901961" stroke="#000000" stroke-width="0.3" />
<path d="M144.16622,201.15696 L149.37231,208.20056 L139.3874,214.11028 Z" fill="#c80000" fill-opacity="0.7843137254901961" stroke="#000000" stroke-width="0.3" />
<path d="M119.44385,210.75051 L113.72275,199.76741 L119.73227,198.58965 Z" fill="#c80000" fill-opacity="0.7843137254901961" stroke="#000000" stroke-width="0.3" />
<path d="M103.75727,187.7241 L107.78364,200.19851 L106.8936,199.76034 Z" fill="#c80000" fill-opacity="0.7843137254901961" stroke="#000000" stroke-width="0.3" />
<path d="M139.3874,214.11028 L133.11797,205.69172 L144.16622,201.15696 Z" fill="#c80000" fill-opacity="0.7843137254901961" stroke="#000000" stroke-width="0.3" />
<path d="M155.83477,214.52907 L149.37231,208.20056 L162.48801,200.21134 Z" fill="#c80000" fill-opacity="0.7843137254901961" stroke="#000000" stroke-width="0.3" />
<path d="M106.75457,199.08996 L102.6779,186.47015 L102.82368,187.16274 Z" fill="#c80000" fill-opacity="0.7843137254901961" stroke="#000000" stroke-width="0.3" />
<path d="M128.41882,196.56241 L133.11797,205.69172 L125.03311,208.81482 Z" fill="#c80000" fill-opacity="0.7843137254901961" stroke="#000000" stroke-width="0.3" />
<path d="M105.97663,188.06551 L109.90049,200.25197 L107.78364,200.19851 Z" fill="#c80000" fill-opacity="0.7843137254901961" stroke="#000000" stroke-width="0.3" />
<path d="M162.48801,200.21134 L167.25541,204.91714 L155.83477,214.52907 Z" fill="#c80000" fill-opacity="0.7843137254901961" stroke="#000000" stroke-width="0.3" />
<path d="M106.8936,199.76034 L102.82368,187.16274 L103.75727,187.7241 Z" fill="#c80000" fill-opacity="0.7843137254901961" stroke="#000000" stroke-width="0.3" />
<path d="M125.03311,208.81482 L119.73227,198.58965 L128.41882,196.56241 Z" fill="#c80000" fill-opacity="0.7843137254901961" stroke="#000000" stroke-width="0.3" />
<path d="M179.43662,212.36793 L172.91866,209.00151 L184.96052,194.73236 Z" fill="#c80000" fill-opacity="0.7843137254901961" stroke="#000000" stroke-width="0.3" />
<path d="M109.98278,188.09765 L113.72275,199.76741 L109.90049,200.25197 Z" fill="#c80000" fill-opacity="0.7843137254901961" stroke="#000000" stroke-width="0.3" />
<path d="M107.78364,200.19851 L103.75727,187.7241 L105.97663,188.06551 Z" fill="#c80000" fill-opacity="0.7843137254901961" stroke="#000000" stroke-width="0.3" />
<path d="M149.37231,208.20056 L144.16622,201.15696 L158.65902,194.98005 Z" fill="#c80000" fill-opacity="0.7843137254901961" stroke="#000000" stroke-width="0.3" />
<path d="M140.27786,193.52639 L144.16622,201.15696 L133.11797,205.69172 Z" fill="#c80000" fill-opacity="0.7843137254901961" stroke="#000000" stroke-width="0.3" />
<path d="M172.91866,209.00151 L167.25541,204.91714 L181.82845,192.45381 Z" fill="#c80000" fill-opacity="0.7843137254901961" stroke="#000000" stroke-width="0.3" />
<path d="M158.65902,194.98005 L162.48801,200.21134 L149.37231,208.20056 Z" fill="#c80000" fill-opacity="0.7843137254901961" stroke="#000000" stroke-width="0.3" />
<path d="M109.90049,200.25197 L105.97663,188.06551 L109.98278,188.09765 Z" fill="#c80000" fill-opacity="0.7843137254901961" stroke="#000000" stroke-width="0.3" />
<path d="M116.2792,187.73157 L119.73227,198.58965 L113.72275,199.76741 Z" fill="#c80000" fill-opacity="0.7843137254901961" stroke="#000000" stroke-width="0.3" />
<path d="M133.11797,205.69172 L128.41882,196.56241 L140.27786,193.52639 Z" fill="#c80000" fill-opacity="0.7843137254901961" stroke="#000000" stroke-width="0.3" />
<path d="M184.96052,194.73236 L188.57389,196.6131 L179.43662,212.36793 Z" fill="#c80000" fill-opacity="0.7843137254901961" stroke="#000000" stroke-width="0.3" />
<path d="M101.00807,174.01776 L102.82368,187.16274 L102.6779,186.47015 Z" fill="#c80000" fill-opacity="0.7843137254901961" stroke="#000000" stroke-width="0.3" />
<path d="M113.72275,199.76741 L109.98278,188.09765 L116.2792,187.73157 Z" fill="#c80000" fill-opacity="0.7843137254901961" stroke="#000000" stroke-width="0.3" />
<path d="M181.82845,192.45381 L184.96052,194.73236 L172.91866,209.00151 Z" fill="#c80000" fill-opacity="0.7843137254901961" stroke="#000000" stroke-width="0.3" />
<path d="M167.25541,204.91714 L162.48801,200.21134 L179.19891,189.83126 Z" fill="#c80000" fill-opacity="0.7843137254901961" stroke="#000000" stroke-width="0.3" />
<path d="M125.37314,186.8763 L128.41882,196.56241 L119.73227,198.58965 Z" fill="#c80000" fill-opacity="0.7843137254901961" stroke="#000000" stroke-width="0.3" />
<path d="M101.96371,174.70855 L103.75727,187.7241 L102.82368,187.16274 Z" fill="#c80000" fill-opacity="0.7843137254901961" stroke="#000000" stroke-width="0.3" />
<path d="M155.81343,189.32089 L158.65902,194.98005 L144.16622,201.15696 Z" fill="#c80000" fill-opacity="0.7843137254901961" stroke="#000000" stroke-width="0.3" />
<path d="M102.6779,186.47015 L100.85841,173.30179 L101.00807,174.01776 Z" fill="#c80000" fill-opacity="0.7843137254901961" stroke="#000000" stroke-width="0.3" />
<path d="M144.16622,201.15696 L140.27786,193.52639 L155.81343,189.32089 Z" fill="#c80000" fill-opacity="0.7843137254901961" stroke="#000000" stroke-width="0.3" />
<path d="M119.73227,198.58965 L116.2792,187.73157 L125.37314,186.8763 Z" fill="#c80000" fill-opacity="0.7843137254901961" stroke="#000000" stroke-width="0.3" />
<path d="M179.19891,189.83126 L181.82845,192.45381 L167.25541,204.91714 Z" fill="#c80000" fill-opacity="0.7843137254901961" stroke="#000000" stroke-width="0.3" />
<path d="M104.23475,175.35321 L105.97663,188.06551 L103.75727,187.7241 Z" fill="#c80000" fill-opacity="0.7843137254901961" stroke="#000000" stroke-width="0.3" />
<path d="M162.48801,200.21134 L158.65902,194.98005 L177.09652,186.92172 Z" fill="#c80000" fill-opacity="0.7843137254901961" stroke="#000000" stroke-width="0.3" />
<path d="M137.7743,185.44022 L140.27786,193.52639 L128.41882,196.56241 Z" fill="#c80000" fill-opacity="0.7843137254901961" stroke="#000000" stroke-width="0.3" />
<path d="M102.82368,187.16274 L101.00807,174.01776 L101.96371,174.70855 Z" fill="#c80000" fill-opacity="0.7843137254901961" stroke="#000000" stroke-width="0.3" />
<path d="M108.33375,175.93014 L109.98278,188.09765 L105.97663,188.06551 Z" fill="#c80000" fill-opacity="0.7843137254901961" stroke="#000000" stroke-width="0.3" />
<path d="M128.41882,196.56241 L125.37314,186.8763 L137.7743,185.44022 Z" fill="#c80000" fill-opacity="0.7843137254901961" stroke="#000000" stroke-width="0.3" />
<path d="M177.09652,186.92172 L179.19891,189.83126 L162.48801,200.21134 Z" fill="#c80000" fill-opacity="0.7843137254901961" stroke="#000000" stroke-width="0.3" />
<path d="M103.75727,187.7241 L101.96371,174.70855 L104.23475,175.35321 Z" fill="#c80000" fill-opacity="0.7843137254901961" stroke="#000000" stroke-width="0.3" />
<path d="M114.77369,176.41646 L116.2792,187.73157 L109.98278,188.09765 Z" fill="#c80000" fill-opacity="0.7843137254901961" stroke="#000000" stroke-width="0.3" />
<path d="M153.99771,183.33326 L155.81343,189.32089 L140.27786,193.52639 Z" fill="#c80000" fill-opacity="0.7843137254901961" stroke="#000000" stroke-width="0.3" />
<path d="M158.65902,194.98005 L155.81343,189.32089 L175.54271,183.78023 Z" fill="#c80000" fill-opacity="0.7843137254901961" stroke="#000000" stroke-width="0.3" />
<path d="M105.97663,188.06551 L104.23475,175.35321 L108.33375,175.93014 Z" fill="#c80000" fill-opacity="0.7843137254901961" stroke="#000000" stroke-width="0.3" />
<path d="M188.57389,196.6131 L184.96052,194.73236 L200.0,176.73339 Z" fill="#c80000" fill-opacity="0.7843137254901961" stroke="#000000" stroke-width="0.3" />
<path d="M140.27786,193.52639 L137.7743,185.44022 L153.99771,183.33326 Z" fill="#c80000" fill-opacity="0.7843137254901961" stroke="#000000" stroke-width="0.3" />
<path d="M175.54271,183.78023 L177.09652,186.92172 L158.65902,194.98005 Z" fill="#c80000" fill-opacity="0.7843137254901961" stroke="#000000" stroke-width="0.3" />
<path d="M124.06644,176.79181 L125.37314,186.8763 L116.2792,187.73157 Z" fill="#c80000" fill-opacity="0.7843137254901961" stroke="#000000" stroke-width="0.3" />
<path d="M184.96052,194.73236 L181.82845,192.45381 L200.0,176.73339 Z" fill="#c80000" fill-opacity="0.7843137254901961" stroke="#000000" stroke-width="0.3" />
<path d="M109.98278,188.09765 L108.33375,175.93014 L114.77369,176.41646 Z" fill="#c80000" fill-opacity="0.7843137254901961" stroke="#000000" stroke-width="0.3" />
<path d="M101.57257,160.53478 L101.00807,174.01776 L100.85841,173.30179 Z" fill="#c80000" fill-opacity="0.7843137254901961" stroke="#000000" stroke-width="0.3" />
<path d="M181.82845,192.45381 L179.19891,189.83126 L200.0,176.73339 Z" fill="#c80000" fill-opacity="0.7843137254901961" stroke="#000000" stroke-width="0.3" />
<path d="M136.72452,177.03293 L137.7743,185.44022 L125.37314,186.8763 Z" fill="#c80000" fill-opacity="0.7843137254901961" stroke="#000000" stroke-width="0.3" />
<path d="M116.2792,187.73157 L114.77369,176.41646 L124.06644,176.79181 Z" fill="#c80000" fill-opacity="0.7843137254901961" stroke="#000000" stroke-width="0.3" />
<path d="M155.81343,189.32089 L153.99771,183.33326 L174.56446,180.46244 Z" fill="#c80000" fill-opacity="0.7843137254901961" stroke="#000000" stroke-width="0.3" />
<path d="M174.56446,180.46244 L175.54271,183.78023 L155.81343,189.32089 Z" fill="#c80000" fill-opacity="0.7843137254901961" stroke="#000000" stroke-width="0.3" />
<path d="M102.52749,161.36008 L101.96371,174.70855 L101.00807,174.01776 Z" fill="#c80000" fill-opacity="0.7843137254901961" stroke="#000000" stroke-width="0.3" />
<path d="M179.19891,189.83126 L177.09652,186.92172 L200.0,176.73339 Z" fill="#c80000" fill-opacity="0.7843137254901961" stroke="#000000" stroke-width="0.3" />
<path d="M125.37314,186.8763 L124.06644,176.79181 L136.72452,177.03293 Z" fill="#c80000" fill-opacity="0.7843137254901961" stroke="#000000" stroke-width="0.3" />
<path d="M153.26076,177.11786 L153.99771,183.33326 L137.7743,185.44022 Z" fill="#c80000" fill-opacity="0.7843137254901961" stroke="#000000" stroke-width="0.3" />
<path d="M100.85841,173.30179 L101.42287,159.7951 L101.57257,160.53478 Z" fill="#c80000" fill-opacity="0.7843137254901961" stroke="#000000" stroke-width="0.3" />
<path d="M104.79673,162.31905 L104.23475,175.35321 L101.96371,174.70855 Z" fill="#c80000" fill-opacity="0.7843137254901961" stroke="#000000" stroke-width="0.3" />
<path d="M177.09652,186.92172 L175.54271,183.78023 L200.0,176.73339 Z" fill="#c80000" fill-opacity="0.7843137254901961" stroke="#000000" stroke-width="0.3" />
<path d="M137.7743,185.44022 L136.72452,177.03293 L153.26076,177.11786 Z" fill="#c80000" fill-opacity="0.7843137254901961" stroke="#000000" stroke-width="0.3" />
<path d="M101.00807,174.01776 L101.57257,160.53478 L102.52749,161.36008 Z" fill="#c80000" fill-opacity="0.7843137254901961" stroke="#000000" stroke-width="0.3" />
<path d="M108.89102,163.45893 L108.33375,175.93014 L104.23475,175.35321 Z" fill="#c80000" fill-opacity="0.7843137254901961" stroke="#000000" stroke-width="0.3" />
<path d="M174.18391,177.02605 L174.56446,180.46244 L153.99771,183.33326 Z" fill="#c80000" fill-opacity="0.7843137254901961" stroke="#000000" stroke-width="0.3" />
<path d="M175.54271,183.78023 L174.56446,180.46244 L200.0,176.73339 Z" fill="#c80000" fill-opacity="0.7843137254901961" stroke="#000000" stroke-width="0.3" />
<path d="M153.99771,183.33326 L153.26076,177.11786 L174.18391,177.02605 Z" fill="#c80000" fill-opacity="0.7843137254901961" stroke="#000000" stroke-width="0.3" />
<path d="M115.31931,164.82786 L114.77369,176.41646 L108.33375,175.93014 Z" fill="#c80000" fill-opacity="0.7843137254901961" stroke="#000000" stroke-width="0.3" />
<path d="M101.96371,174.70855 L102.52749,161.36008 L104.79673,162.31905 Z" fill="#c80000" fill-opacity="0.7843137254901961" stroke="#000000" stroke-width="0.3" />
<path d="M174.56446,180.46244 L174.18391,177.02605 L200.0,176.73339 Z" fill="#c80000" fill-opacity="0.7843137254901961" stroke="#000000" stroke-width="0.3" />
<path d="M124.58852,166.47252 L124.06644,176.79181 L114.77369,176.41646 Z" fill="#c80000" fill-opacity="0.7843137254901961" stroke="#000000" stroke-width="0.3" />
<path d="M104.23475,175.35321 L104.79673,162.31905 L108.89102,163.45893 Z" fill="#c80000" fill-opacity="0.7843137254901961" stroke="#000000" stroke-width="0.3" />
<path d="M137.20077,168.44017 L136.72452,177.03293 L124.06644,176.79181 Z" fill="#c80000" fill-opacity="0.7843137254901961" stroke="#000000" stroke-width="0.3" />
<path d="M153.65199,170.77695 L153.26076,177.11786 L136.72452,177.03293 Z" fill="#c80000" fill-opacity="0.7843137254901961" stroke="#000000" stroke-width="0.3" />
<path d="M174.42733,173.52649 L174.18391,177.02605 L153.26076,177.11786 Z" fill="#c80000" fill-opacity="0.7843137254901961" stroke="#000000" stroke-width="0.3" />
<path d="M174.18391,177.02605 L174.42733,173.52649 L200.0,176.73339 Z" fill="#c80000" fill-opacity="0.7843137254901961" stroke="#000000" stroke-width="0.3" />
<path d="M108.33375,175.93014 L108.89102,163.45893 L115.31931,164.82786 Z" fill="#c80000" fill-opacity="0.7843137254901961" stroke="#000000" stroke-width="0.3" />
<path d="M114.77369,176.41646 L115.31931,164.82786 L124.58852,166.47252 Z" fill="#c80000" fill-opacity="0.7843137254901961" stroke="#000000" stroke-width="0.3" />
<path d="M153.26076,177.11786 L153.65199,170.77695 L174.42733,173.52649 Z" fill="#c80000" fill-opacity="0.7843137254901961" stroke="#000000" stroke-width="0.3" />
<path d="M124.06644,176.79181 L124.58852,166.47252 L137.20077,168.44017 Z" fill="#c80000" fill-opacity="0.7843137254901961" stroke="#000000" stroke-width="0.3" />
<path d="M136.72452,177.03293 L137.20077,168.44017 L153.65199,170.77695 Z" fill="#c80000" fill-opacity="0.7843137254901961" stroke="#000000" stroke-width="0.3" />
<path d="M104.64751,146.93328 L101.57257,160.53478 L101.42287,159.7951 Z" fill="#c80000" fill-opacity="0.7843137254901961" stroke="#000000" stroke-width="0.3" />
<path d="M174.42733,173.52649 L175.31978,170.02364 L200.0,176.73339 Z" fill="#c80000" fill-opacity="0.7843137254901961" stroke="#000000" stroke-width="0.3" />
<path d="M175.31978,170.02364 L174.42733,173.52649 L153.65199,170.77695 Z" fill="#c80000" fill-opacity="0.7843137254901961" stroke="#000000" stroke-width="0.3" />
<path d="M105.57691,147.89527 L102.52749,161.36008 L101.57257,160.53478 Z" fill="#c80000" fill-opacity="0.7843137254901961" stroke="#000000" stroke-width="0.3" />
<path d="M175.31978,170.02364 L176.88636,166.57411 L200.0,176.73339 Z" fill="#c80000" fill-opacity="0.7843137254901961" stroke="#000000" stroke-width="0.3" />
<path d="M101.42287,159.7951 L104.50195,146.16892 L104.64751,146.93328 Z" fill="#c80000" fill-opacity="0.7843137254901961" stroke="#000000" stroke-width="0.3" />
<path d="M107.78647,149.1738 L104.79673,162.31905 L102.52749,161.36008 Z" fill="#c80000" fill-opacity="0.7843137254901961" stroke="#000000" stroke-width="0.3" />
<path d="M155.22124,164.41392 L153.65199,170.77695 L137.20077,168.44017 Z" fill="#c80000" fill-opacity="0.7843137254901961" stroke="#000000" stroke-width="0.3" />
<path d="M153.65199,170.77695 L155.22124,164.41392 L175.31978,170.02364 Z" fill="#c80000" fill-opacity="0.7843137254901961" stroke="#000000" stroke-width="0.3" />
<path d="M111.77091,150.88701 L108.89102,163.45893 L104.79673,162.31905 Z" fill="#c80000" fill-opacity="0.7843137254901961" stroke="#000000" stroke-width="0.3" />
<path d="M139.27532,159.80372 L137.20077,168.44017 L124.58852,166.47252 Z" fill="#c80000" fill-opacity="0.7843137254901961" stroke="#000000" stroke-width="0.3" />
<path d="M101.57257,160.53478 L104.64751,146.93328 L105.57691,147.89527 Z" fill="#c80000" fill-opacity="0.7843137254901961" stroke="#000000" stroke-width="0.3" />
<path d="M176.88636,166.57411 L175.31978,170.02364 L155.22124,164.41392 Z" fill="#c80000" fill-opacity="0.7843137254901961" stroke="#000000" stroke-width="0.3" />
<path d="M118.0238,153.15307 L115.31931,164.82786 L108.89102,163.45893 Z" fill="#c80000" fill-opacity="0.7843137254901961" stroke="#000000" stroke-width="0.3" />
<path d="M127.03199,156.08739 L124.58852,166.47252 L115.31931,164.82786 Z" fill="#c80000" fill-opacity="0.7843137254901961" stroke="#000000" stroke-width="0.3" />
<path d="M137.20077,168.44017 L139.27532,159.80372 L155.22124,164.41392 Z" fill="#c80000" fill-opacity="0.7843137254901961" stroke="#000000" stroke-width="0.3" />
<path d="M102.52749,161.36008 L105.57691,147.89527 L107.78647,149.1738 Z" fill="#c80000" fill-opacity="0.7843137254901961" stroke="#000000" stroke-width="0.3" />
<path d="M104.79673,162.31905 L107.78647,149.1738 L111.77091,150.88701 Z" fill="#c80000" fill-opacity="0.7843137254901961" stroke="#000000" stroke-width="0.3" />
<path d="M124.58852,166.47252 L127.03199,156.08739 L139.27532,159.80372 Z" fill="#c80000" fill-opacity="0.7843137254901961" stroke="#000000" stroke-width="0.3" />
<path d="M155.22124,164.41392 L158.0187,158.13549 L176.88636,166.57411 Z" fill="#c80000" fill-opacity="0.7843137254901961" stroke="#000000" stroke-width="0.3" />
<path d="M108.89102,163.45893 L111.77091,150.88701 L118.0238,153.15307 Z" fill="#c80000" fill-opacity="0.7843137254901961" stroke="#000000" stroke-width="0.3" />
<path d="M115.31931,164.82786 L118.0238,153.15307 L127.03199,156.08739 Z" fill="#c80000" fill-opacity="0.7843137254901961" stroke="#000000" stroke-width="0.3" />
<path d="M158.0187,158.13549 L155.22124,164.41392 L139.27532,159.80372 Z" fill="#c80000" fill-opacity="0.7843137254901961" stroke="#000000" stroke-width="0.3" />
<path d="M110.36597,133.44028 L104.64751,146.93328 L104.50195,146.16892 Z" fill="#c80000" fill-opacity="0.7843137254901961" stroke="#000000" stroke-width="0.3" />
<path d="M143.02161,151.26802 L139.27532,159.80372 L127.03199,156.08739 Z" fill="#c80000" fill-opacity="0.7843137254901961" stroke="#000000" stroke-width="0.3" />
<path d="M139.27532,159.80372 L143.02161,151.26802 L158.0187,158.13549 Z" fill="#c80000" fill-opacity="0.7843137254901961" stroke="#000000" stroke-width="0.3" />
<path d="M111.24391,134.53912 L105.57691,147.89527 L104.64751,146.93328 Z" fill="#c80000" fill-opacity="0.7843137254901961" stroke="#000000" stroke-width="0.3" />
<path d="M113.33122,136.13799 L107.78647,149.1738 L105.57691,147.89527 Z" fill="#c80000" fill-opacity="0.7843137254901961" stroke="#000000" stroke-width="0.3" />
<path d="M131.48887,145.80936 L127.03199,156.08739 L118.0238,153.15307 Z" fill="#c80000" fill-opacity="0.7843137254901961" stroke="#000000" stroke-width="0.3" />
<path d="M104.50195,146.16892 L110.2282,132.65115 L110.36597,133.44028 Z" fill="#c80000" fill-opacity="0.7843137254901961" stroke="#000000" stroke-width="0.3" />
<path d="M117.09336,138.42536 L111.77091,150.88701 L107.78647,149.1738 Z" fill="#c80000" fill-opacity="0.7843137254901961" stroke="#000000" stroke-width="0.3" />
<path d="M122.9939,141.58768 L118.0238,153.15307 L111.77091,150.88701 Z" fill="#c80000" fill-opacity="0.7843137254901961" stroke="#000000" stroke-width="0.3" />
<path d="M127.03199,156.08739 L131.48887,145.80936 L143.02161,151.26802 Z" fill="#c80000" fill-opacity="0.7843137254901961" stroke="#000000" stroke-width="0.3" />
<path d="M104.64751,146.93328 L110.36597,133.44028 L111.24391,134.53912 Z" fill="#c80000" fill-opacity="0.7843137254901961" stroke="#000000" stroke-width="0.3" />
<path d="M105.57691,147.89527 L111.24391,134.53912 L113.33122,136.13799 Z" fill="#c80000" fill-opacity="0.7843137254901961" stroke="#000000" stroke-width="0.3" />
<path d="M118.0238,153.15307 L122.9939,141.58768 L131.48887,145.80936 Z" fill="#c80000" fill-opacity="0.7843137254901961" stroke="#000000" stroke-width="0.3" />
<path d="M107.78647,149.1738 L113.33122,136.13799 L117.09336,138.42536 Z" fill="#c80000" fill-opacity="0.7843137254901961" stroke="#000000" stroke-width="0.3" />
<path d="M111.77091,150.88701 L117.09336,138.42536 L122.9939,141.58768 Z" fill="#c80000" fill-opacity="0.7843137254901961" stroke="#000000" stroke-width="0.3" />
</svg>