<?xml version="1.0" encoding="UTF-8"?>
<svg xmlns="http://www.w3.org/2000/svg" xmlns:xlink="http://www.w3.org/1999/xlink"
     width="400" height="400" viewBox="0 0 400 400">
<defs>
</defs>
<path d="M293.67871,197.15445 L287.18915,210.03321 L287.0592,210.68433 Z" fill="#f10000" fill-opacity="0.5882352941176471" stroke="#000000" stroke-width="0.3" />
<path d="M293.53864,197.82823 L287.0592,210.68433 L286.23073,211.01684 Z" fill="#c80000" fill-opacity="0.7843137254901961" stroke="#000000" stroke-width="0.3" />
<path d="M292.6441,198.28519 L286.23073,211.01684 L284.2592,210.82272 Z" fill="#c80000" fill-opacity="0.7843137254901961" stroke="#000000" stroke-width="0.3" />
<path d="M287.0592,210.68433 L293.53864,197.82823 L293.67871,197.15445 Z" fill="#f10000" fill-opacity="0.5882352941176471" stroke="#000000" stroke-width="0.3" />
<path d="M286.23073,211.01684 L292.6441,198.28519 L293.53864,197.82823 Z" fill="#c80000" fill-opacity="0.7843137254901961" stroke="#000000" stroke-width="0.3" />
<path d="M290.51607,198.38262 L284.2592,210.82272 L280.69904,209.89356 Z" fill="#c80000" fill-opacity="0.7843137254901961" stroke="#000000" stroke-width="0.3" />
<path d="M284.2592,210.82272 L290.51607,198.38262 L292.6441,198.28519 Z" fill="#c80000" fill-opacity="0.7843137254901961" stroke="#000000" stroke-width="0.3" />
<path d="M286.6739,197.97755 L280.69904,209.89356 L275.09794,208.01711 Z" fill="#c80000" fill-opacity="0.7843137254901961" stroke="#000000" stroke-width="0.3" />
<path d="M297.68437,183.90891 L293.67871,197.15445 L293.53864,197.82823 Z" fill="#c80000" fill-opacity="0.7843137254901961" stroke="#000000" stroke-width="0.3" />
<path d="M280.69904,209.89356 L286.6739,197.97755 L290.51607,198.38262 Z" fill="#c80000" fill-opacity="0.7843137254901961" stroke="#000000" stroke-width="0.3" />
<path d="M297.53735,184.60612 L293.53864,197.82823 L292.6441,198.28519 Z" fill="#c80000" fill-opacity="0.7843137254901961" stroke="#000000" stroke-width="0.3" />
<path d="M280.63197,196.92325 L275.09794,208.01711 L266.99661,204.97926 Z" fill="#c80000" fill-opacity="0.7843137254901961" stroke="#000000" stroke-width="0.3" />
<path d="M275.09794,208.01711 L280.63197,196.92325 L286.6739,197.97755 Z" fill="#c80000" fill-opacity="0.7843137254901961" stroke="#000000" stroke-width="0.3" />
<path d="M296.59955,185.19239 L292.6441,198.28519 L290.51607,198.38262 Z" fill="#c80000" fill-opacity="0.7843137254901961" stroke="#000000" stroke-width="0.3" />
<path d="M293.53864,197.82823 L297.53735,184.60612 L297.68437,183.90891 Z" fill="#c80000" fill-opacity="0.7843137254901961" stroke="#000000" stroke-width="0.3" />
<path d="M294.37034,185.59223 L290.51607,198.38262 L286.6739,197.97755 Z" fill="#c80000" fill-opacity="0.7843137254901961" stroke="#000000" stroke-width="0.3" />
<path d="M292.6441,198.28519 L296.59955,185.19239 L297.53735,184.60612 Z" fill="#c80000" fill-opacity="0.7843137254901961" stroke="#000000" stroke-width="0.3" />
<path d="M266.99661,204.97926 L271.90104,195.07541 L280.63197,196.92325 Z" fill="#c80000" fill-opacity="0.7843137254901961" stroke="#000000" stroke-width="0.3" />
<path d="M271.90104,195.07541 L266.99661,204.97926 L255.92693,200.56071 Z" fill="#c80000" fill-opacity="0.7843137254901961" stroke="#000000" stroke-width="0.3" />
<path d="M290.51607,198.38262 L294.37034,185.59223 L296.59955,185.19239 Z" fill="#c80000" fill-opacity="0.7843137254901961" stroke="#000000" stroke-width="0.3" />
<path d="M290.34584,185.73067 L286.6739,197.97755 L280.63197,196.92325 Z" fill="#c80000" fill-opacity="0.7843137254901961" stroke="#000000" stroke-width="0.3" />
<path d="M286.6739,197.97755 L290.34584,185.73067 L294.37034,185.59223 Z" fill="#c80000" fill-opacity="0.7843137254901961" stroke="#000000" stroke-width="0.3" />
<path d="M255.92693,200.56071 L259.98391,192.28472 L271.90104,195.07541 Z" fill="#c80000" fill-opacity="0.7843137254901961" stroke="#000000" stroke-width="0.3" />
<path d="M299.24605,170.51044 L297.68437,183.90891 L297.53735,184.60612 Z" fill="#c80000" fill-opacity="0.7843137254901961" stroke="#000000" stroke-width="0.3" />
<path d="M284.02106,185.52935 L280.63197,196.92325 L271.90104,195.07541 Z" fill="#c80000" fill-opacity="0.7843137254901961" stroke="#000000" stroke-width="0.3" />
<path d="M259.98391,192.28472 L255.92693,200.56071 L241.40771,194.53744 Z" fill="#c80000" fill-opacity="0.7843137254901961" stroke="#000000" stroke-width="0.3" />
<path d="M280.63197,196.92325 L284.02106,185.52935 L290.34584,185.73067 Z" fill="#c80000" fill-opacity="0.7843137254901961" stroke="#000000" stroke-width="0.3" />
<path d="M299.09609,171.23101 L297.53735,184.60612 L296.59955,185.19239 Z" fill="#c80000" fill-opacity="0.7843137254901961" stroke="#000000" stroke-width="0.3" />
<path d="M274.88788,184.91318 L271.90104,195.07541 L259.98391,192.28472 Z" fill="#c80000" fill-opacity="0.7843137254901961" stroke="#000000" stroke-width="0.3" />
<path d="M298.13844,171.94967 L296.59955,185.19239 L294.37034,185.59223 Z" fill="#c80000" fill-opacity="0.7843137254901961" stroke="#000000" stroke-width="0.3" />
<path d="M271.90104,195.07541 L274.88788,184.91318 L284.02106,185.52935 Z" fill="#c80000" fill-opacity="0.7843137254901961" stroke="#000000" stroke-width="0.3" />
<path d="M241.40771,194.53744 L244.37466,188.40068 L259.98391,192.28472 Z" fill="#c80000" fill-opacity="0.7843137254901961" stroke="#000000" stroke-width="0.3" />
<path d="M297.53735,184.60612 L299.09609,171.23101 L299.24605,170.51044 Z" fill="#c80000" fill-opacity="0.7843137254901961" stroke="#000000" stroke-width="0.3" />
<path d="M295.86272,172.65897 L294.37034,185.59223 L290.34584,185.73067 Z" fill="#c80000" fill-opacity="0.7843137254901961" stroke="#000000" stroke-width="0.3" />
<path d="M296.59955,185.19239 L298.13844,171.94967 L299.09609,171.23101 Z" fill="#c80000" fill-opacity="0.7843137254901961" stroke="#000000" stroke-width="0.3" />
<path d="M244.37466,188.40068 L241.40771,194.53744 L222.9387,186.67589 Z" fill="#c80000" fill-opacity="0.7843137254901961" stroke="#000000" stroke-width="0.3" />
<path d="M262.43571,183.80302 L259.98391,192.28472 L244.37466,188.40068 Z" fill="#c80000" fill-opacity="0.7843137254901961" stroke="#000000" stroke-width="0.3" />
<path d="M259.98391,192.28472 L262.43571,183.80302 L274.88788,184.91318 Z" fill="#c80000" fill-opacity="0.7843137254901961" stroke="#000000" stroke-width="0.3" />
<path d="M291.75555,173.35188 L290.34584,185.73067 L284.02106,185.52935 Z" fill="#c80000" fill-opacity="0.7843137254901961" stroke="#000000" stroke-width="0.3" />
<path d="M294.37034,185.59223 L295.86272,172.65897 L298.13844,171.94967 Z" fill="#c80000" fill-opacity="0.7843137254901961" stroke="#000000" stroke-width="0.3" />
<path d="M285.30348,174.0206 L284.02106,185.52935 L274.88788,184.91318 Z" fill="#c80000" fill-opacity="0.7843137254901961" stroke="#000000" stroke-width="0.3" />
<path d="M222.9387,186.67589 L224.55696,183.26957 L244.37466,188.40068 Z" fill="#c80000" fill-opacity="0.7843137254901961" stroke="#000000" stroke-width="0.3" />
<path d="M290.34584,185.73067 L291.75555,173.35188 L295.86272,172.65897 Z" fill="#c80000" fill-opacity="0.7843137254901961" stroke="#000000" stroke-width="0.3" />
<path d="M244.37466,188.40068 L246.14971,182.12205 L262.43571,183.80302 Z" fill="#c80000" fill-opacity="0.7843137254901961" stroke="#000000" stroke-width="0.3" />
<path d="M246.14971,182.12205 L244.37466,188.40068 L224.55696,183.26957 Z" fill="#c80000" fill-opacity="0.7843137254901961" stroke="#000000" stroke-width="0.3" />
<path d="M298.40346,157.18174 L299.24605,170.51044 L299.09609,171.23101 Z" fill="#c80000" fill-opacity="0.7843137254901961" stroke="#000000" stroke-width="0.3" />
<path d="M275.99483,174.65728 L274.88788,184.91318 L262.43571,183.80302 Z" fill="#c80000" fill-opacity="0.7843137254901961" stroke="#000000" stroke-width="0.3" />
<path d="M284.02106,185.52935 L285.30348,174.0206 L291.75555,173.35188 Z" fill="#c80000" fill-opacity="0.7843137254901961" stroke="#000000" stroke-width="0.3" />
<path d="M298.25442,157.92622 L299.09609,171.23101 L298.13844,171.94967 Z" fill="#c80000" fill-opacity="0.7843137254901961" stroke="#000000" stroke-width="0.3" />
<path d="M274.88788,184.91318 L275.99483,174.65728 L285.30348,174.0206 Z" fill="#c80000" fill-opacity="0.7843137254901961" stroke="#000000" stroke-width="0.3" />
<path d="M224.55696,183.26957 L222.9387,186.67589 L200.0,176.73339 Z" fill="#c80000" fill-opacity="0.7843137254901961" stroke="#000000" stroke-width="0.3" />
<path d="M263.31802,175.25426 L262.43571,183.80302 L246.14971,182.12205 Z" fill="#c80000" fill-opacity="0.7843137254901961" stroke="#000000" stroke-width="0.3" />
<path d="M224.55696,183.26957 L225.51218,179.79245 L246.14971,182.12205 Z" fill="#c80000" fill-opacity="0.7843137254901961" stroke="#000000" stroke-width="0.3" />
<path d="M262.43571,183.80302 L263.31802,175.25426 L275.99483,174.65728 Z" fill="#c80000" fill-opacity="0.7843137254901961" stroke="#000000" stroke-width="0.3" />
<path d="M297.30012,158.77742 L298.13844,171.94967 L295.86272,172.65897 Z" fill="#c80000" fill-opacity="0.7843137254901961" stroke="#000000" stroke-width="0.3" />
<path d="M225.51218,179.79245 L224.55696,183.26957 L200.0,176.73339 Z" fill="#c80000" fill-opacity="0.7843137254901961" stroke="#000000" stroke-width="0.3" />
<path d="M246.76243,175.80514 L246.14971,182.12205 L225.51218,179.79245 Z" fill="#c80000" fill-opacity="0.7843137254901961" stroke="#000000" stroke-width="0.3" />
<path d="M299.09609,171.23101 L298.25442,157.92622 L298.40346,157.18174 Z" fill="#c80000" fill-opacity="0.7843137254901961" stroke="#000000" stroke-width="0.3" />
<path d="M246.14971,182.12205 L246.76243,175.80514 L263.31802,175.25426 Z" fill="#c80000" fill-opacity="0.7843137254901961" stroke="#000000" stroke-width="0.3" />
<path d="M295.0323,159.79717 L295.86272,172.65897 L291.75555,173.35188 Z" fill="#c80000" fill-opacity="0.7843137254901961" stroke="#000000" stroke-width="0.3" />
<path d="M225.51218,179.79245 L225.82317,176.30021 L246.76243,175.80514 Z" fill="#c80000" fill-opacity="0.7843137254901961" stroke="#000000" stroke-width="0.3" />
<path d="M298.13844,171.94967 L297.30012,158.77742 L298.25442,157.92622 Z" fill="#c80000" fill-opacity="0.7843137254901961" stroke="#000000" stroke-width="0.3" />
<path d="M225.82317,176.30021 L225.51218,179.79245 L200.0,176.73339 Z" fill="#c80000" fill-opacity="0.7843137254901961" stroke="#000000" stroke-width="0.3" />
<path d="M290.94155,161.04745 L291.75555,173.35188 L285.30348,174.0206 Z" fill="#c80000" fill-opacity="0.7843137254901961" stroke="#000000" stroke-width="0.3" />
<path d="M284.51979,162.58717 L285.30348,174.0206 L275.99483,174.65728 Z" fill="#c80000" fill-opacity="0.7843137254901961" stroke="#000000" stroke-width="0.3" />
<path d="M295.86272,172.65897 L295.0323,159.79717 L297.30012,158.77742 Z" fill="#c80000" fill-opacity="0.7843137254901961" stroke="#000000" stroke-width="0.3" />
<path d="M225.5088,172.85298 L225.82317,176.30021 L200.0,176.73339 Z" fill="#c80000" fill-opacity="0.7843137254901961" stroke="#000000" stroke-width="0.3" />
<path d="M275.26105,164.47888 L275.99483,174.65728 L263.31802,175.25426 Z" fill="#c80000" fill-opacity="0.7843137254901961" stroke="#000000" stroke-width="0.3" />
<path d="M246.24247,169.55419 L246.76243,175.80514 L225.82317,176.30021 Z" fill="#c80000" fill-opacity="0.7843137254901961" stroke="#000000" stroke-width="0.3" />
<path d="M262.66599,166.78179 L263.31802,175.25426 L246.76243,175.80514 Z" fill="#c80000" fill-opacity="0.7843137254901961" stroke="#000000" stroke-width="0.3" />
<path d="M291.75555,173.35188 L290.94155,161.04745 L295.0323,159.79717 Z" fill="#c80000" fill-opacity="0.7843137254901961" stroke="#000000" stroke-width="0.3" />
<path d="M225.82317,176.30021 L225.5088,172.85298 L246.24247,169.55419 Z" fill="#c80000" fill-opacity="0.7843137254901961" stroke="#000000" stroke-width="0.3" />
<path d="M224.58958,169.50764 L225.5088,172.85298 L200.0,176.73339 Z" fill="#c80000" fill-opacity="0.7843137254901961" stroke="#000000" stroke-width="0.3" />
<path d="M285.30348,174.0206 L284.51979,162.58717 L290.94155,161.04745 Z" fill="#c80000" fill-opacity="0.7843137254901961" stroke="#000000" stroke-width="0.3" />
<path d="M246.76243,175.80514 L246.24247,169.55419 L262.66599,166.78179 Z" fill="#c80000" fill-opacity="0.7843137254901961" stroke="#000000" stroke-width="0.3" />
<path d="M275.99483,174.65728 L275.26105,164.47888 L284.51979,162.58717 Z" fill="#c80000" fill-opacity="0.7843137254901961" stroke="#000000" stroke-width="0.3" />
<path d="M295.19809,144.1545 L298.40346,157.18174 L298.25442,157.92622 Z" fill="#c80000" fill-opacity="0.7843137254901961" stroke="#000000" stroke-width="0.3" />
<path d="M263.31802,175.25426 L262.66599,166.78179 L275.26105,164.47888 Z" fill="#c80000" fill-opacity="0.7843137254901961" stroke="#000000" stroke-width="0.3" />
<path d="M223.08247,166.32446 L224.58958,169.50764 L200.0,176.73339 Z" fill="#c80000" fill-opacity="0.7843137254901961" stroke="#000000" stroke-width="0.3" />
<path d="M295.05318,144.92252 L298.25442,157.92622 L297.30012,158.77742 Z" fill="#c80000" fill-opacity="0.7843137254901961" stroke="#000000" stroke-width="0.3" />
<path d="M244.62028,163.47622 L246.24247,169.55419 L225.5088,172.85298 Z" fill="#c80000" fill-opacity="0.7843137254901961" stroke="#000000" stroke-width="0.3" />
<path d="M225.5088,172.85298 L224.58958,169.50764 L244.62028,163.47622 Z" fill="#c80000" fill-opacity="0.7843137254901961" stroke="#000000" stroke-width="0.3" />
<path d="M221.01023,163.36271 L223.08247,166.32446 L200.0,176.73339 Z" fill="#c80000" fill-opacity="0.7843137254901961" stroke="#000000" stroke-width="0.3" />
<path d="M294.12571,145.90483 L297.30012,158.77742 L295.0323,159.79717 Z" fill="#c80000" fill-opacity="0.7843137254901961" stroke="#000000" stroke-width="0.3" />
<path d="M218.39107,160.68179 L221.01023,163.36271 L200.0,176.73339 Z" fill="#c80000" fill-opacity="0.7843137254901961" stroke="#000000" stroke-width="0.3" />
<path d="M260.51717,158.53 L262.66599,166.78179 L246.24247,169.55419 Z" fill="#c80000" fill-opacity="0.7843137254901961" stroke="#000000" stroke-width="0.3" />
<path d="M298.25442,157.92622 L295.05318,144.92252 L295.19809,144.1545 Z" fill="#c80000" fill-opacity="0.7843137254901961" stroke="#000000" stroke-width="0.3" />
<path d="M291.92135,147.23089 L295.0323,159.79717 L290.94155,161.04745 Z" fill="#c80000" fill-opacity="0.7843137254901961" stroke="#000000" stroke-width="0.3" />
<path d="M272.72633,154.55418 L275.26105,164.47888 L262.66599,166.78179 Z" fill="#c80000" fill-opacity="0.7843137254901961" stroke="#000000" stroke-width="0.3" />
<path d="M215.24775,158.34377 L218.39107,160.68179 L200.0,176.73339 Z" fill="#c80000" fill-opacity="0.7843137254901961" stroke="#000000" stroke-width="0.3" />
<path d="M246.24247,169.55419 L244.62028,163.47622 L260.51717,158.53 Z" fill="#c80000" fill-opacity="0.7843137254901961" stroke="#000000" stroke-width="0.3" />
<path d="M287.94636,149.02978 L290.94155,161.04745 L284.51979,162.58717 Z" fill="#c80000" fill-opacity="0.7843137254901961" stroke="#000000" stroke-width="0.3" />
<path d="M224.58958,169.50764 L223.08247,166.32446 L241.92786,157.68038 Z" fill="#c80000" fill-opacity="0.7843137254901961" stroke="#000000" stroke-width="0.3" />
<path d="M281.71047,151.42843 L284.51979,162.58717 L275.26105,164.47888 Z" fill="#c80000" fill-opacity="0.7843137254901961" stroke="#000000" stroke-width="0.3" />
<path d="M297.30012,158.77742 L294.12571,145.90483 L295.05318,144.92252 Z" fill="#c80000" fill-opacity="0.7843137254901961" stroke="#000000" stroke-width="0.3" />
<path d="M241.92786,157.68038 L244.62028,163.47622 L224.58958,169.50764 Z" fill="#c80000" fill-opacity="0.7843137254901961" stroke="#000000" stroke-width="0.3" />
<path d="M211.60106,156.4078 L215.24775,158.34377 L200.0,176.73339 Z" fill="#c80000" fill-opacity="0.7843137254901961" stroke="#000000" stroke-width="0.3" />
<path d="M295.0323,159.79717 L291.92135,147.23089 L294.12571,145.90483 Z" fill="#c80000" fill-opacity="0.7843137254901961" stroke="#000000" stroke-width="0.3" />
<path d="M262.66599,166.78179 L260.51717,158.53 L272.72633,154.55418 Z" fill="#c80000" fill-opacity="0.7843137254901961" stroke="#000000" stroke-width="0.3" />
<path d="M290.94155,161.04745 L287.94636,149.02978 L291.92135,147.23089 Z" fill="#c80000" fill-opacity="0.7843137254901961" stroke="#000000" stroke-width="0.3" />
<path d="M275.26105,164.47888 L272.72633,154.55418 L281.71047,151.42843 Z" fill="#c80000" fill-opacity="0.7843137254901961" stroke="#000000" stroke-width="0.3" />
<path d="M284.51979,162.58717 L281.71047,151.42843 L287.94636,149.02978 Z" fill="#c80000" fill-opacity="0.7843137254901961" stroke="#000000" stroke-width="0.3" />
<path d="M223.08247,166.32446 L221.01023,163.36271 L238.1977,152.27785 Z" fill="#c80000" fill-opacity="0.7843137254901961" stroke="#000000" stroke-width="0.3" />
<path d="M238.1977,152.27785 L241.92786,157.68038 L223.08247,166.32446 Z" fill="#c80000" fill-opacity="0.7843137254901961" stroke="#000000" stroke-width="0.3" />
<path d="M256.90962,150.64885 L260.51717,158.53 L244.62028,163.47622 Z" fill="#c80000" fill-opacity="0.7843137254901961" stroke="#000000" stroke-width="0.3" />
<path d="M289.67525,131.6692 L295.19809,144.1545 L295.05318,144.92252 Z" fill="#c80000" fill-opacity="0.7843137254901961" stroke="#000000" stroke-width="0.3" />
<path d="M244.62028,163.47622 L241.92786,157.68038 L256.90962,150.64885 Z" fill="#c80000" fill-opacity="0.7843137254901961" stroke="#000000" stroke-width="0.3" />
<path d="M221.01023,163.36271 L218.39107,160.68179 L233.46436,147.38069 Z" fill="#c80000" fill-opacity="0.7843137254901961" stroke="#000000" stroke-width="0.3" />
<path d="M289.53819,132.45995 L295.05318,144.92252 L294.12571,145.90483 Z" fill="#c80000" fill-opacity="0.7843137254901961" stroke="#000000" stroke-width="0.3" />
<path d="M268.43163,145.06392 L272.72633,154.55418 L260.51717,158.53 Z" fill="#c80000" fill-opacity="0.7843137254901961" stroke="#000000" stroke-width="0.3" />
<path d="M288.6604,133.56916 L294.12571,145.90483 L291.92135,147.23089 Z" fill="#c80000" fill-opacity="0.7843137254901961" stroke="#000000" stroke-width="0.3" />
<path d="M233.46436,147.38069 L238.1977,152.27785 L221.01023,163.36271 Z" fill="#c80000" fill-opacity="0.7843137254901961" stroke="#000000" stroke-width="0.3" />
<path d="M218.39107,160.68179 L215.24775,158.34377 L227.76422,143.10129 Z" fill="#c80000" fill-opacity="0.7843137254901961" stroke="#000000" stroke-width="0.3" />
<path d="M276.91926,140.7484 L281.71047,151.42843 L272.72633,154.55418 Z" fill="#c80000" fill-opacity="0.7843137254901961" stroke="#000000" stroke-width="0.3" />
<path d="M260.51717,158.53 L256.90962,150.64885 L268.43163,145.06392 Z" fill="#c80000" fill-opacity="0.7843137254901961" stroke="#000000" stroke-width="0.3" />
<path d="M295.05318,144.92252 L289.53819,132.45995 L289.67525,131.6692 Z" fill="#c80000" fill-opacity="0.7843137254901961" stroke="#000000" stroke-width="0.3" />
<path d="M286.57485,135.1913 L291.92135,147.23089 L287.94636,149.02978 Z" fill="#c80000" fill-opacity="0.7843137254901961" stroke="#000000" stroke-width="0.3" />
<path d="M282.81491,137.52028 L287.94636,149.02978 L281.71047,151.42843 Z" fill="#c80000" fill-opacity="0.7843137254901961" stroke="#000000" stroke-width="0.3" />
<path d="M241.92786,157.68038 L238.1977,152.27785 L251.88473,143.29128 Z" fill="#c80000" fill-opacity="0.7843137254901961" stroke="#000000" stroke-width="0.3" />
<path d="M251.88473,143.29128 L256.90962,150.64885 L241.92786,157.68038 Z" fill="#c80000" fill-opacity="0.7843137254901961" stroke="#000000" stroke-width="0.3" />
<path d="M294.12571,145.90483 L288.6604,133.56916 L289.53819,132.45995 Z" fill="#c80000" fill-opacity="0.7843137254901961" stroke="#000000" stroke-width="0.3" />
<path d="M215.24775,158.34377 L211.60106,156.4078 L221.13705,139.55369 Z" fill="#c80000" fill-opacity="0.7843137254901961" stroke="#000000" stroke-width="0.3" />
<path d="M272.72633,154.55418 L268.43163,145.06392 L276.91926,140.7484 Z" fill="#c80000" fill-opacity="0.7843137254901961" stroke="#000000" stroke-width="0.3" />
<path d="M227.76422,143.10129 L233.46436,147.38069 L218.39107,160.68179 Z" fill="#c80000" fill-opacity="0.7843137254901961" stroke="#000000" stroke-width="0.3" />
<path d="M291.92135,147.23089 L286.57485,135.1913 L288.6604,133.56916 Z" fill="#c80000" fill-opacity="0.7843137254901961" stroke="#000000" stroke-width="0.3" />
<path d="M281.71047,151.42843 L276.91926,140.7484 L282.81491,137.52028 Z" fill="#c80000" fill-opacity="0.7843137254901961" stroke="#000000" stroke-width="0.3" />
<path d="M287.94636,149.02978 L282.81491,137.52028 L286.57485,135.1913 Z" fill="#c80000" fill-opacity="0.7843137254901961" stroke="#000000" stroke-width="0.3" />
<path d="M221.13705,139.55369 L227.76422,143.10129 L215.24775,158.34377 Z" fill="#c80000" fill-opacity="0.7843137254901961" stroke="#000000" stroke-width="0.3" />
<path d="M262.42326,136.193 L268.43163,145.06392 L256.90962,150.64885 Z" fill="#c80000" fill-opacity="0.7843137254901961" stroke="#000000" stroke-width="0.3" />
<path d="M281.88613,119.97448 L289.67525,131.6692 L289.53819,132.45995 Z" fill="#c80000" fill-opacity="0.7843137254901961" stroke="#000000" stroke-width="0.3" />
<path d="M238.1977,152.27785 L233.46436,147.38069 L245.48477,136.61186 Z" fill="#c80000" fill-opacity="0.7843137254901961" stroke="#000000" stroke-width="0.3" />
<path d="M256.90962,150.64885 L251.88473,143.29128 L262.42326,136.193 Z" fill="#c80000" fill-opacity="0.7843137254901961" stroke="#000000" stroke-width="0.3" />
<path d="M245.48477,136.61186 L251.88473,143.29128 L238.1977,152.27785 Z" fill="#c80000" fill-opacity="0.7843137254901961" stroke="#000000" stroke-width="0.3" />
<path d="M281.76017,120.78692 L289.53819,132.45995 L288.6604,133.56916 Z" fill="#c80000" fill-opacity="0.7843137254901961" stroke="#000000" stroke-width="0.3" />
<path d="M270.19427,130.757 L276.91926,140.7484 L268.43163,145.06392 Z" fill="#c80000" fill-opacity="0.7843137254901961" stroke="#000000" stroke-width="0.3" />
<path d="M280.95509,122.01558 L288.6604,133.56916 L286.57485,135.1913 Z" fill="#c80000" fill-opacity="0.7843137254901961" stroke="#000000" stroke-width="0.3" />
<path d="M275.59717,126.74729 L282.81491,137.52028 L276.91926,140.7484 Z" fill="#c80000" fill-opacity="0.7843137254901961" stroke="#000000" stroke-width="0.3" />
<path d="M279.0433,123.91713 L286.57485,135.1913 L282.81491,137.52028 Z" fill="#c80000" fill-opacity="0.7843137254901961" stroke="#000000" stroke-width="0.3" />
<path d="M289.53819,132.45995 L281.76017,120.78692 L281.88613,119.97448 Z" fill="#c80000" fill-opacity="0.7843137254901961" stroke="#000000" stroke-width="0.3" />
<path d="M268.43163,145.06392 L262.42326,136.193 L270.19427,130.757 Z" fill="#c80000" fill-opacity="0.7843137254901961" stroke="#000000" stroke-width="0.3" />
<path d="M233.46436,147.38069 L227.76422,143.10129 L237.75887,130.76856 Z" fill="#c80000" fill-opacity="0.7843137254901961" stroke="#000000" stroke-width="0.3" />
<path d="M288.6604,133.56916 L280.95509,122.01558 L281.76017,120.78692 Z" fill="#c80000" fill-opacity="0.7843137254901961" stroke="#000000" stroke-width="0.3" />
<path d="M237.75887,130.76856 L245.48477,136.61186 L233.46436,147.38069 Z" fill="#c80000" fill-opacity="0.7843137254901961" stroke="#000000" stroke-width="0.3" />
<path d="M276.91926,140.7484 L270.19427,130.757 L275.59717,126.74729 Z" fill="#c80000" fill-opacity="0.7843137254901961" stroke="#000000" stroke-width="0.3" />
<path d="M254.75148,128.13133 L262.42326,136.193 L251.88473,143.29128 Z" fill="#c80000" fill-opacity="0.7843137254901961" stroke="#000000" stroke-width="0.3" />
<path d="M286.57485,135.1913 L279.0433,123.91713 L280.95509,122.01558 Z" fill="#c80000" fill-opacity="0.7843137254901961" stroke="#000000" stroke-width="0.3" />
<path d="M251.88473,143.29128 L245.48477,136.61186 L254.75148,128.13133 Z" fill="#c80000" fill-opacity="0.7843137254901961" stroke="#000000" stroke-width="0.3" />
<path d="M282.81491,137.52028 L275.59717,126.74729 L279.0433,123.91713 Z" fill="#c80000" fill-opacity="0.7843137254901961" stroke="#000000" stroke-width="0.3" />
<path d="M227.76422,143.10129 L221.13705,139.55369 L228.75954,125.92004 Z" fill="#c80000" fill-opacity="0.7843137254901961" stroke="#000000" stroke-width="0.3" />
<path d="M271.88968,109.32597 L281.88613,119.97448 L281.76017,120.78692 Z" fill="#c80000" fill-opacity="0.7843137254901961" stroke="#000000" stroke-width="0.3" />
<path d="M228.75954,125.92004 L237.75887,130.76856 L227.76422,143.10129 Z" fill="#c80000" fill-opacity="0.7843137254901961" stroke="#000000" stroke-width="0.3" />
<path d="M261.5909,121.6706 L270.19427,130.757 L262.42326,136.193 Z" fill="#c80000" fill-opacity="0.7843137254901961" stroke="#000000" stroke-width="0.3" />
<path d="M271.77826,110.15779 L281.76017,120.78692 L280.95509,122.01558 Z" fill="#c80000" fill-opacity="0.7843137254901961" stroke="#000000" stroke-width="0.3" />
<path d="M262.42326,136.193 L254.75148,128.13133 L261.5909,121.6706 Z" fill="#c80000" fill-opacity="0.7843137254901961" stroke="#000000" stroke-width="0.3" />
<path d="M266.34803,116.94431 L275.59717,126.74729 L270.19427,130.757 Z" fill="#c80000" fill-opacity="0.7843137254901961" stroke="#000000" stroke-width="0.3" />
<path d="M245.48477,136.61186 L237.75887,130.76856 L245.47193,121.07243 Z" fill="#c80000" fill-opacity="0.7843137254901961" stroke="#000000" stroke-width="0.3" />
<path d="M271.0689,111.49644 L280.95509,122.01558 L279.0433,123.91713 Z" fill="#c80000" fill-opacity="0.7843137254901961" stroke="#000000" stroke-width="0.3" />
<path d="M245.47193,121.07243 L254.75148,128.13133 L245.48477,136.61186 Z" fill="#c80000" fill-opacity="0.7843137254901961" stroke="#000000" stroke-width="0.3" />
<path d="M269.38437,113.65498 L279.0433,123.91713 L275.59717,126.74729 Z" fill="#c80000" fill-opacity="0.7843137254901961" stroke="#000000" stroke-width="0.3" />
<path d="M281.76017,120.78692 L271.77826,110.15779 L271.88968,109.32597 Z" fill="#c80000" fill-opacity="0.7843137254901961" stroke="#000000" stroke-width="0.3" />
<path d="M270.19427,130.757 L261.5909,121.6706 L266.34803,116.94431 Z" fill="#c80000" fill-opacity="0.7843137254901961" stroke="#000000" stroke-width="0.3" />
<path d="M280.95509,122.01558 L271.0689,111.49644 L271.77826,110.15779 Z" fill="#c80000" fill-opacity="0.7843137254901961" stroke="#000000" stroke-width="0.3" />
<path d="M275.59717,126.74729 L266.34803,116.94431 L269.38437,113.65498 Z" fill="#c80000" fill-opacity="0.7843137254901961" stroke="#000000" stroke-width="0.3" />
<path d="M279.0433,123.91713 L269.38437,113.65498 L271.0689,111.49644 Z" fill="#c80000" fill-opacity="0.7843137254901961" stroke="#000000" stroke-width="0.3" />
<path d="M237.75887,130.76856 L228.75954,125.92004 L234.64718,115.20975 Z" fill="#c80000" fill-opacity="0.7843137254901961" stroke="#000000" stroke-width="0.3" />
<path d="M251.16867,113.7081 L261.5909,121.6706 L254.75148,128.13133 Z" fill="#c80000" fill-opacity="0.7843137254901961" stroke="#000000" stroke-width="0.3" />
<path d="M234.64718,115.20975 L245.47193,121.07243 L237.75887,130.76856 Z" fill="#c80000" fill-opacity="0.7843137254901961" stroke="#000000" stroke-width="0.3" />
<path d="M254.75148,128.13133 L245.47193,121.07243 L251.16867,113.7081 Z" fill="#c80000" fill-opacity="0.7843137254901961" stroke="#000000" stroke-width="0.3" />
<path d="M259.75451,99.98476 L271.88968,109.32597 L271.77826,110.15779 Z" fill="#c80000" fill-opacity="0.7843137254901961" stroke="#000000" stroke-width="0.3" />
<path d="M259.6618,100.83393 L271.77826,110.15779 L271.0689,111.49644 Z" fill="#c80000" fill-opacity="0.7843137254901961" stroke="#000000" stroke-width="0.3" />
<path d="M255.13359,108.34938 L266.34803,116.94431 L261.5909,121.6706 Z" fill="#c80000" fill-opacity="0.7843137254901961" stroke="#000000" stroke-width="0.3" />
<path d="M259.07042,102.2693 L271.0689,111.49644 L269.38437,113.65498 Z" fill="#c80000" fill-opacity="0.7843137254901961" stroke="#000000" stroke-width="0.3" />
<path d="M257.66515,104.65457 L269.38437,113.65498 L266.34803,116.94431 Z" fill="#c80000" fill-opacity="0.7843137254901961" stroke="#000000" stroke-width="0.3" />
<path d="M271.77826,110.15779 L259.6618,100.83393 L259.75451,99.98476 Z" fill="#c80000" fill-opacity="0.7843137254901961" stroke="#000000" stroke-width="0.3" />
<path d="M261.5909,121.6706 L251.16867,113.7081 L255.13359,108.34938 Z" fill="#c80000" fill-opacity="0.7843137254901961" stroke="#000000" stroke-width="0.3" />
<path d="M271.0689,111.49644 L259.07042,102.2693 L259.6618,100.83393 Z" fill="#c80000" fill-opacity="0.7843137254901961" stroke="#000000" stroke-width="0.3" />
<path d="M266.34803,116.94431 L255.13359,108.34938 L257.66515,104.65457 Z" fill="#c80000" fill-opacity="0.7843137254901961" stroke="#000000" stroke-width="0.3" />
<path d="M238.99851,107.09074 L251.16867,113.7081 L245.47193,121.07243 Z" fill="#c80000" fill-opacity="0.7843137254901961" stroke="#000000" stroke-width="0.3" />
<path d="M245.47193,121.07243 L234.64718,115.20975 L238.99851,107.09074 Z" fill="#c80000" fill-opacity="0.7843137254901961" stroke="#000000" stroke-width="0.3" />
<path d="M269.38437,113.65498 L257.66515,104.65457 L259.07042,102.2693 Z" fill="#c80000" fill-opacity="0.7843137254901961" stroke="#000000" stroke-width="0.3" />
<path d="M245.56068,92.21517 L259.75451,99.98476 L259.6618,100.83393 Z" fill="#c80000" fill-opacity="0.7843137254901961" stroke="#000000" stroke-width="0.3" />
<path d="M242.02818,101.20461 L255.13359,108.34938 L251.16867,113.7081 Z" fill="#c80000" fill-opacity="0.7843137254901961" stroke="#000000" stroke-width="0.3" />
<path d="M245.48971,93.07913 L259.6618,100.83393 L259.07042,102.2693 Z" fill="#c80000" fill-opacity="0.7843137254901961" stroke="#000000" stroke-width="0.3" />
<path d="M251.16867,113.7081 L238.99851,107.09074 L242.02818,101.20461 Z" fill="#c80000" fill-opacity="0.7843137254901961" stroke="#000000" stroke-width="0.3" />
<path d="M243.963,97.17056 L257.66515,104.65457 L255.13359,108.34938 Z" fill="#c80000" fill-opacity="0.7843137254901961" stroke="#000000" stroke-width="0.3" />
<path d="M245.03753,94.5955 L259.07042,102.2693 L257.66515,104.65457 Z" fill="#c80000" fill-opacity="0.7843137254901961" stroke="#000000" stroke-width="0.3" />
<path d="M259.6618,100.83393 L245.48971,93.07913 L245.56068,92.21517 Z" fill="#c80000" fill-opacity="0.7843137254901961" stroke="#000000" stroke-width="0.3" />
<path d="M259.07042,102.2693 L245.03753,94.5955 L245.48971,93.07913 Z" fill="#c80000" fill-opacity="0.7843137254901961" stroke="#000000" stroke-width="0.3" />
<path d="M255.13359,108.34938 L242.02818,101.20461 L243.963,97.17056 Z" fill="#c80000" fill-opacity="0.7843137254901961" stroke="#000000" stroke-width="0.3" />
<path d="M257.66515,104.65457 L243.963,97.17056 L245.03753,94.5955 Z" fill="#c80000" fill-opacity="0.7843137254901961" stroke="#000000" stroke-width="0.3" />
</svg>