<?xml version="1.0" encoding="UTF-8"?>
<svg xmlns="http://www.w3.org/2000/svg" xmlns:xlink="http://www.w3.org/1999/xlink"
     width="400" height="400" viewBox="0 0 400 400">
<defs>
</defs>
<path d="M176.88636,166.57411 L179.05515,163.37709 L200.0,176.73339 Z" fill="#c80000" fill-opacity="0.7843137254901961" stroke="#000000" stroke-width="0.3" />
<path d="M179.05515,163.37709 L181.69313,160.60738 L200.0,176.73339 Z" fill="#c80000" fill-opacity="0.7843137254901961" stroke="#000000" stroke-width="0.3" />
<path d="M181.69313,160.60738 L184.7355,158.2863 L200.0,176.73339 Z" fill="#c80000" fill-opacity="0.7843137254901961" stroke="#000000" stroke-width="0.3" />
<path d="M184.7355,158.2863 L188.11313,156.43724 L200.0,176.73339 Z" fill="#c80000" fill-opacity="0.7843137254901961" stroke="#000000" stroke-width="0.3" />
<path d="M179.05515,163.37709 L176.88636,166.57411 L158.0187,158.13549 Z" fill="#c80000" fill-opacity="0.7843137254901961" stroke="#000000" stroke-width="0.3" />
<path d="M188.11313,156.43724 L191.7589,155.0798 L200.0,176.73339 Z" fill="#c80000" fill-opacity="0.7843137254901961" stroke="#000000" stroke-width="0.3" />
<path d="M207.64855,154.99535 L211.60106,156.4078 L200.0,176.73339 Z" fill="#c80000" fill-opacity="0.7843137254901961" stroke="#000000" stroke-width="0.3" />
<path d="M191.7589,155.0798 L195.60483,154.23762 L200.0,176.73339 Z" fill="#c80000" fill-opacity="0.7843137254901961" stroke="#000000" stroke-width="0.3" />
<path d="M203.61926,154.17522 L207.64855,154.99535 L200.0,176.73339 Z" fill="#c80000" fill-opacity="0.7843137254901961" stroke="#000000" stroke-width="0.3" />
<path d="M195.60483,154.23762 L199.58071,153.92903 L200.0,176.73339 Z" fill="#c80000" fill-opacity="0.7843137254901961" stroke="#000000" stroke-width="0.3" />
<path d="M199.58071,153.92903 L203.61926,154.17522 L200.0,176.73339 Z" fill="#c80000" fill-opacity="0.7843137254901961" stroke="#000000" stroke-width="0.3" />
<path d="M181.69313,160.60738 L179.05515,163.37709 L161.92055,152.30499 Z" fill="#c80000" fill-opacity="0.7843137254901961" stroke="#000000" stroke-width="0.3" />
<path d="M158.0187,158.13549 L161.92055,152.30499 L179.05515,163.37709 Z" fill="#c80000" fill-opacity="0.7843137254901961" stroke="#000000" stroke-width="0.3" />
<path d="M184.7355,158.2863 L181.69313,160.60738 L166.68918,147.24365 Z" fill="#c80000" fill-opacity="0.7843137254901961" stroke="#000000" stroke-width="0.3" />
<path d="M161.92055,152.30499 L158.0187,158.13549 L143.02161,151.26802 Z" fill="#c80000" fill-opacity="0.7843137254901961" stroke="#000000" stroke-width="0.3" />
<path d="M161.92055,152.30499 L166.68918,147.24365 L181.69313,160.60738 Z" fill="#c80000" fill-opacity="0.7843137254901961" stroke="#000000" stroke-width="0.3" />
<path d="M188.11313,156.43724 L184.7355,158.2863 L172.20377,142.99672 Z" fill="#c80000" fill-opacity="0.7843137254901961" stroke="#000000" stroke-width="0.3" />
<path d="M143.02161,151.26802 L148.27618,143.32788 L161.92055,152.30499 Z" fill="#c80000" fill-opacity="0.7843137254901961" stroke="#000000" stroke-width="0.3" />
<path d="M191.7589,155.0798 L188.11313,156.43724 L178.34218,139.60771 Z" fill="#c80000" fill-opacity="0.7843137254901961" stroke="#000000" stroke-width="0.3" />
<path d="M166.68918,147.24365 L172.20377,142.99672 L184.7355,158.2863 Z" fill="#c80000" fill-opacity="0.7843137254901961" stroke="#000000" stroke-width="0.3" />
<path d="M211.60106,156.4078 L207.64855,154.99535 L213.9419,136.96321 Z" fill="#c80000" fill-opacity="0.7843137254901961" stroke="#000000" stroke-width="0.3" />
<path d="M148.27618,143.32788 L143.02161,151.26802 L131.48887,145.80936 Z" fill="#c80000" fill-opacity="0.7843137254901961" stroke="#000000" stroke-width="0.3" />
<path d="M195.60483,154.23762 L191.7589,155.0798 L184.97914,137.11916 Z" fill="#c80000" fill-opacity="0.7843137254901961" stroke="#000000" stroke-width="0.3" />
<path d="M166.68918,147.24365 L161.92055,152.30499 L148.27618,143.32788 Z" fill="#c80000" fill-opacity="0.7843137254901961" stroke="#000000" stroke-width="0.3" />
<path d="M207.64855,154.99535 L203.61926,154.17522 L206.59795,135.45792 Z" fill="#c80000" fill-opacity="0.7843137254901961" stroke="#000000" stroke-width="0.3" />
<path d="M199.58071,153.92903 L195.60483,154.23762 L191.98689,135.57189 Z" fill="#c80000" fill-opacity="0.7843137254901961" stroke="#000000" stroke-width="0.3" />
<path d="M203.61926,154.17522 L199.58071,153.92903 L199.23643,135.00572 Z" fill="#c80000" fill-opacity="0.7843137254901961" stroke="#000000" stroke-width="0.3" />
<path d="M172.20377,142.99672 L178.34218,139.60771 L188.11313,156.43724 Z" fill="#c80000" fill-opacity="0.7843137254901961" stroke="#000000" stroke-width="0.3" />
<path d="M118.49372,120.84459 L110.36597,133.44028 L110.2282,132.65115 Z" fill="#c80000" fill-opacity="0.7843137254901961" stroke="#000000" stroke-width="0.3" />
<path d="M137.77016,136.23696 L131.48887,145.80936 L122.9939,141.58768 Z" fill="#c80000" fill-opacity="0.7843137254901961" stroke="#000000" stroke-width="0.3" />
<path d="M131.48887,145.80936 L137.77016,136.23696 L148.27618,143.32788 Z" fill="#c80000" fill-opacity="0.7843137254901961" stroke="#000000" stroke-width="0.3" />
<path d="M213.9419,136.96321 L221.13705,139.55369 L211.60106,156.4078 Z" fill="#c80000" fill-opacity="0.7843137254901961" stroke="#000000" stroke-width="0.3" />
<path d="M119.29591,122.07246 L111.24391,134.53912 L110.36597,133.44028 Z" fill="#c80000" fill-opacity="0.7843137254901961" stroke="#000000" stroke-width="0.3" />
<path d="M178.34218,139.60771 L184.97914,137.11916 L191.7589,155.0798 Z" fill="#c80000" fill-opacity="0.7843137254901961" stroke="#000000" stroke-width="0.3" />
<path d="M148.27618,143.32788 L154.72262,136.42526 L166.68918,147.24365 Z" fill="#c80000" fill-opacity="0.7843137254901961" stroke="#000000" stroke-width="0.3" />
<path d="M130.02343,130.80672 L122.9939,141.58768 L117.09336,138.42536 Z" fill="#c80000" fill-opacity="0.7843137254901961" stroke="#000000" stroke-width="0.3" />
<path d="M121.2023,123.97291 L113.33122,136.13799 L111.24391,134.53912 Z" fill="#c80000" fill-opacity="0.7843137254901961" stroke="#000000" stroke-width="0.3" />
<path d="M172.20377,142.99672 L166.68918,147.24365 L154.72262,136.42526 Z" fill="#c80000" fill-opacity="0.7843137254901961" stroke="#000000" stroke-width="0.3" />
<path d="M110.2282,132.65115 L118.36817,120.03238 L118.49372,120.84459 Z" fill="#c80000" fill-opacity="0.7843137254901961" stroke="#000000" stroke-width="0.3" />
<path d="M124.63743,126.80087 L117.09336,138.42536 L113.33122,136.13799 Z" fill="#c80000" fill-opacity="0.7843137254901961" stroke="#000000" stroke-width="0.3" />
<path d="M206.59795,135.45792 L213.9419,136.96321 L207.64855,154.99535 Z" fill="#c80000" fill-opacity="0.7843137254901961" stroke="#000000" stroke-width="0.3" />
<path d="M184.97914,137.11916 L191.98689,135.57189 L195.60483,154.23762 Z" fill="#c80000" fill-opacity="0.7843137254901961" stroke="#000000" stroke-width="0.3" />
<path d="M199.23643,135.00572 L206.59795,135.45792 L203.61926,154.17522 Z" fill="#c80000" fill-opacity="0.7843137254901961" stroke="#000000" stroke-width="0.3" />
<path d="M191.98689,135.57189 L199.23643,135.00572 L199.58071,153.92903 Z" fill="#c80000" fill-opacity="0.7843137254901961" stroke="#000000" stroke-width="0.3" />
<path d="M122.9939,141.58768 L130.02343,130.80672 L137.77016,136.23696 Z" fill="#c80000" fill-opacity="0.7843137254901961" stroke="#000000" stroke-width="0.3" />
<path d="M154.72262,136.42526 L148.27618,143.32788 L137.77016,136.23696 Z" fill="#c80000" fill-opacity="0.7843137254901961" stroke="#000000" stroke-width="0.3" />
<path d="M110.36597,133.44028 L118.49372,120.84459 L119.29591,122.07246 Z" fill="#c80000" fill-opacity="0.7843137254901961" stroke="#000000" stroke-width="0.3" />
<path d="M111.24391,134.53912 L119.29591,122.07246 L121.2023,123.97291 Z" fill="#c80000" fill-opacity="0.7843137254901961" stroke="#000000" stroke-width="0.3" />
<path d="M117.09336,138.42536 L124.63743,126.80087 L130.02343,130.80672 Z" fill="#c80000" fill-opacity="0.7843137254901961" stroke="#000000" stroke-width="0.3" />
<path d="M113.33122,136.13799 L121.2023,123.97291 L124.63743,126.80087 Z" fill="#c80000" fill-opacity="0.7843137254901961" stroke="#000000" stroke-width="0.3" />
<path d="M178.34218,139.60771 L172.20377,142.99672 L162.19753,130.6256 Z" fill="#c80000" fill-opacity="0.7843137254901961" stroke="#000000" stroke-width="0.3" />
<path d="M154.72262,136.42526 L162.19753,130.6256 L172.20377,142.99672 Z" fill="#c80000" fill-opacity="0.7843137254901961" stroke="#000000" stroke-width="0.3" />
<path d="M137.77016,136.23696 L145.49724,127.90614 L154.72262,136.42526 Z" fill="#c80000" fill-opacity="0.7843137254901961" stroke="#000000" stroke-width="0.3" />
<path d="M145.49724,127.90614 L137.77016,136.23696 L130.02343,130.80672 Z" fill="#c80000" fill-opacity="0.7843137254901961" stroke="#000000" stroke-width="0.3" />
<path d="M184.97914,137.11916 L178.34218,139.60771 L170.53225,125.99365 Z" fill="#c80000" fill-opacity="0.7843137254901961" stroke="#000000" stroke-width="0.3" />
<path d="M128.54619,109.86039 L118.49372,120.84459 L118.36817,120.03238 Z" fill="#c80000" fill-opacity="0.7843137254901961" stroke="#000000" stroke-width="0.3" />
<path d="M162.19753,130.6256 L154.72262,136.42526 L145.49724,127.90614 Z" fill="#c80000" fill-opacity="0.7843137254901961" stroke="#000000" stroke-width="0.3" />
<path d="M221.13705,139.55369 L213.9419,136.96321 L218.9767,122.37568 Z" fill="#c80000" fill-opacity="0.7843137254901961" stroke="#000000" stroke-width="0.3" />
<path d="M162.19753,130.6256 L170.53225,125.99365 L178.34218,139.60771 Z" fill="#c80000" fill-opacity="0.7843137254901961" stroke="#000000" stroke-width="0.3" />
<path d="M138.68903,121.41598 L130.02343,130.80672 L124.63743,126.80087 Z" fill="#c80000" fill-opacity="0.7843137254901961" stroke="#000000" stroke-width="0.3" />
<path d="M191.98689,135.57189 L184.97914,137.11916 L179.55545,122.58928 Z" fill="#c80000" fill-opacity="0.7843137254901961" stroke="#000000" stroke-width="0.3" />
<path d="M129.25257,111.20197 L119.29591,122.07246 L118.49372,120.84459 Z" fill="#c80000" fill-opacity="0.7843137254901961" stroke="#000000" stroke-width="0.3" />
<path d="M213.9419,136.96321 L206.59795,135.45792 L208.9827,120.31527 Z" fill="#c80000" fill-opacity="0.7843137254901961" stroke="#000000" stroke-width="0.3" />
<path d="M130.02343,130.80672 L138.68903,121.41598 L145.49724,127.90614 Z" fill="#c80000" fill-opacity="0.7843137254901961" stroke="#000000" stroke-width="0.3" />
<path d="M118.36817,120.03238 L128.43568,109.02763 L128.54619,109.86039 Z" fill="#c80000" fill-opacity="0.7843137254901961" stroke="#000000" stroke-width="0.3" />
<path d="M130.93028,113.36716 L121.2023,123.97291 L119.29591,122.07246 Z" fill="#c80000" fill-opacity="0.7843137254901961" stroke="#000000" stroke-width="0.3" />
<path d="M133.95268,116.66986 L124.63743,126.80087 L121.2023,123.97291 Z" fill="#c80000" fill-opacity="0.7843137254901961" stroke="#000000" stroke-width="0.3" />
<path d="M199.23643,135.00572 L191.98689,135.57189 L189.09104,120.47174 Z" fill="#c80000" fill-opacity="0.7843137254901961" stroke="#000000" stroke-width="0.3" />
<path d="M206.59795,135.45792 L199.23643,135.00572 L198.95976,119.69624 Z" fill="#c80000" fill-opacity="0.7843137254901961" stroke="#000000" stroke-width="0.3" />
<path d="M218.9767,122.37568 L228.75954,125.92004 L221.13705,139.55369 Z" fill="#c80000" fill-opacity="0.7843137254901961" stroke="#000000" stroke-width="0.3" />
<path d="M170.53225,125.99365 L179.55545,122.58928 L184.97914,137.11916 Z" fill="#c80000" fill-opacity="0.7843137254901961" stroke="#000000" stroke-width="0.3" />
<path d="M118.49372,120.84459 L128.54619,109.86039 L129.25257,111.20197 Z" fill="#c80000" fill-opacity="0.7843137254901961" stroke="#000000" stroke-width="0.3" />
<path d="M145.49724,127.90614 L154.47528,120.89997 L162.19753,130.6256 Z" fill="#c80000" fill-opacity="0.7843137254901961" stroke="#000000" stroke-width="0.3" />
<path d="M124.63743,126.80087 L133.95268,116.66986 L138.68903,121.41598 Z" fill="#c80000" fill-opacity="0.7843137254901961" stroke="#000000" stroke-width="0.3" />
<path d="M170.53225,125.99365 L162.19753,130.6256 L154.47528,120.89997 Z" fill="#c80000" fill-opacity="0.7843137254901961" stroke="#000000" stroke-width="0.3" />
<path d="M119.29591,122.07246 L129.25257,111.20197 L130.93028,113.36716 Z" fill="#c80000" fill-opacity="0.7843137254901961" stroke="#000000" stroke-width="0.3" />
<path d="M208.9827,120.31527 L218.9767,122.37568 L213.9419,136.96321 Z" fill="#c80000" fill-opacity="0.7843137254901961" stroke="#000000" stroke-width="0.3" />
<path d="M121.2023,123.97291 L130.93028,113.36716 L133.95268,116.66986 Z" fill="#c80000" fill-opacity="0.7843137254901961" stroke="#000000" stroke-width="0.3" />
<path d="M154.47528,120.89997 L145.49724,127.90614 L138.68903,121.41598 Z" fill="#c80000" fill-opacity="0.7843137254901961" stroke="#000000" stroke-width="0.3" />
<path d="M179.55545,122.58928 L189.09104,120.47174 L191.98689,135.57189 Z" fill="#c80000" fill-opacity="0.7843137254901961" stroke="#000000" stroke-width="0.3" />
<path d="M198.95976,119.69624 L208.9827,120.31527 L206.59795,135.45792 Z" fill="#c80000" fill-opacity="0.7843137254901961" stroke="#000000" stroke-width="0.3" />
<path d="M189.09104,120.47174 L198.95976,119.69624 L199.23643,135.00572 Z" fill="#c80000" fill-opacity="0.7843137254901961" stroke="#000000" stroke-width="0.3" />
<path d="M140.26803,100.6058 L128.54619,109.86039 L128.43568,109.02763 Z" fill="#c80000" fill-opacity="0.7843137254901961" stroke="#000000" stroke-width="0.3" />
<path d="M154.47528,120.89997 L164.50053,115.29878 L170.53225,125.99365 Z" fill="#c80000" fill-opacity="0.7843137254901961" stroke="#000000" stroke-width="0.3" />
<path d="M179.55545,122.58928 L170.53225,125.99365 L164.50053,115.29878 Z" fill="#c80000" fill-opacity="0.7843137254901961" stroke="#000000" stroke-width="0.3" />
<path d="M148.77131,113.51345 L138.68903,121.41598 L133.95268,116.66986 Z" fill="#c80000" fill-opacity="0.7843137254901961" stroke="#000000" stroke-width="0.3" />
<path d="M138.68903,121.41598 L148.77131,113.51345 L154.47528,120.89997 Z" fill="#c80000" fill-opacity="0.7843137254901961" stroke="#000000" stroke-width="0.3" />
<path d="M140.86038,102.04389 L129.25257,111.20197 L128.54619,109.86039 Z" fill="#c80000" fill-opacity="0.7843137254901961" stroke="#000000" stroke-width="0.3" />
<path d="M228.75954,125.92004 L218.9767,122.37568 L222.86737,110.92211 Z" fill="#c80000" fill-opacity="0.7843137254901961" stroke="#000000" stroke-width="0.3" />
<path d="M128.43568,109.02763 L140.17505,99.7562 L140.26803,100.6058 Z" fill="#c80000" fill-opacity="0.7843137254901961" stroke="#000000" stroke-width="0.3" />
<path d="M144.8015,108.13918 L133.95268,116.66986 L130.93028,113.36716 Z" fill="#c80000" fill-opacity="0.7843137254901961" stroke="#000000" stroke-width="0.3" />
<path d="M142.26707,104.43422 L130.93028,113.36716 L129.25257,111.20197 Z" fill="#c80000" fill-opacity="0.7843137254901961" stroke="#000000" stroke-width="0.3" />
<path d="M164.50053,115.29878 L154.47528,120.89997 L148.77131,113.51345 Z" fill="#c80000" fill-opacity="0.7843137254901961" stroke="#000000" stroke-width="0.3" />
<path d="M189.09104,120.47174 L179.55545,122.58928 L175.36376,111.18 Z" fill="#c80000" fill-opacity="0.7843137254901961" stroke="#000000" stroke-width="0.3" />
<path d="M222.86737,110.92211 L234.64718,115.20975 L228.75954,125.92004 Z" fill="#c80000" fill-opacity="0.7843137254901961" stroke="#000000" stroke-width="0.3" />
<path d="M133.95268,116.66986 L144.8015,108.13918 L148.77131,113.51345 Z" fill="#c80000" fill-opacity="0.7843137254901961" stroke="#000000" stroke-width="0.3" />
<path d="M128.54619,109.86039 L140.26803,100.6058 L140.86038,102.04389 Z" fill="#c80000" fill-opacity="0.7843137254901961" stroke="#000000" stroke-width="0.3" />
<path d="M218.9767,122.37568 L208.9827,120.31527 L210.82627,108.42836 Z" fill="#c80000" fill-opacity="0.7843137254901961" stroke="#000000" stroke-width="0.3" />
<path d="M164.50053,115.29878 L175.36376,111.18 L179.55545,122.58928 Z" fill="#c80000" fill-opacity="0.7843137254901961" stroke="#000000" stroke-width="0.3" />
<path d="M198.95976,119.69624 L189.09104,120.47174 L186.85176,108.61765 Z" fill="#c80000" fill-opacity="0.7843137254901961" stroke="#000000" stroke-width="0.3" />
<path d="M129.25257,111.20197 L140.86038,102.04389 L142.26707,104.43422 Z" fill="#c80000" fill-opacity="0.7843137254901961" stroke="#000000" stroke-width="0.3" />
<path d="M130.93028,113.36716 L142.26707,104.43422 L144.8015,108.13918 Z" fill="#c80000" fill-opacity="0.7843137254901961" stroke="#000000" stroke-width="0.3" />
<path d="M208.9827,120.31527 L198.95976,119.69624 L198.74649,107.67937 Z" fill="#c80000" fill-opacity="0.7843137254901961" stroke="#000000" stroke-width="0.3" />
<path d="M148.77131,113.51345 L160.04227,107.19139 L164.50053,115.29878 Z" fill="#c80000" fill-opacity="0.7843137254901961" stroke="#000000" stroke-width="0.3" />
<path d="M210.82627,108.42836 L222.86737,110.92211 L218.9767,122.37568 Z" fill="#c80000" fill-opacity="0.7843137254901961" stroke="#000000" stroke-width="0.3" />
<path d="M175.36376,111.18 L186.85176,108.61765 L189.09104,120.47174 Z" fill="#c80000" fill-opacity="0.7843137254901961" stroke="#000000" stroke-width="0.3" />
<path d="M160.04227,107.19139 L148.77131,113.51345 L144.8015,108.13918 Z" fill="#c80000" fill-opacity="0.7843137254901961" stroke="#000000" stroke-width="0.3" />
<path d="M175.36376,111.18 L164.50053,115.29878 L160.04227,107.19139 Z" fill="#c80000" fill-opacity="0.7843137254901961" stroke="#000000" stroke-width="0.3" />
<path d="M153.39122,93.19656 L140.26803,100.6058 L140.17505,99.7562 Z" fill="#c80000" fill-opacity="0.7843137254901961" stroke="#000000" stroke-width="0.3" />
<path d="M198.74649,107.67937 L210.82627,108.42836 L208.9827,120.31527 Z" fill="#c80000" fill-opacity="0.7843137254901961" stroke="#000000" stroke-width="0.3" />
<path d="M186.85176,108.61765 L198.74649,107.67937 L198.95976,119.69624 Z" fill="#c80000" fill-opacity="0.7843137254901961" stroke="#000000" stroke-width="0.3" />
<path d="M153.85493,94.71211 L140.86038,102.04389 L140.26803,100.6058 Z" fill="#c80000" fill-opacity="0.7843137254901961" stroke="#000000" stroke-width="0.3" />
<path d="M234.64718,115.20975 L222.86737,110.92211 L225.74412,102.24953 Z" fill="#c80000" fill-opacity="0.7843137254901961" stroke="#000000" stroke-width="0.3" />
<path d="M140.17505,99.7562 L153.31873,92.33337 L153.39122,93.19656 Z" fill="#c80000" fill-opacity="0.7843137254901961" stroke="#000000" stroke-width="0.3" />
<path d="M156.93774,101.31353 L144.8015,108.13918 L142.26707,104.43422 Z" fill="#c80000" fill-opacity="0.7843137254901961" stroke="#000000" stroke-width="0.3" />
<path d="M225.74412,102.24953 L238.99851,107.09074 L234.64718,115.20975 Z" fill="#c80000" fill-opacity="0.7843137254901961" stroke="#000000" stroke-width="0.3" />
<path d="M154.95571,97.28407 L142.26707,104.43422 L140.86038,102.04389 Z" fill="#c80000" fill-opacity="0.7843137254901961" stroke="#000000" stroke-width="0.3" />
<path d="M144.8015,108.13918 L156.93774,101.31353 L160.04227,107.19139 Z" fill="#c80000" fill-opacity="0.7843137254901961" stroke="#000000" stroke-width="0.3" />
<path d="M160.04227,107.19139 L172.26466,102.5408 L175.36376,111.18 Z" fill="#c80000" fill-opacity="0.7843137254901961" stroke="#000000" stroke-width="0.3" />
<path d="M140.26803,100.6058 L153.39122,93.19656 L153.85493,94.71211 Z" fill="#c80000" fill-opacity="0.7843137254901961" stroke="#000000" stroke-width="0.3" />
<path d="M186.85176,108.61765 L175.36376,111.18 L172.26466,102.5408 Z" fill="#c80000" fill-opacity="0.7843137254901961" stroke="#000000" stroke-width="0.3" />
<path d="M142.26707,104.43422 L154.95571,97.28407 L156.93774,101.31353 Z" fill="#c80000" fill-opacity="0.7843137254901961" stroke="#000000" stroke-width="0.3" />
<path d="M140.86038,102.04389 L153.85493,94.71211 L154.95571,97.28407 Z" fill="#c80000" fill-opacity="0.7843137254901961" stroke="#000000" stroke-width="0.3" />
<path d="M222.86737,110.92211 L210.82627,108.42836 L212.18916,99.43265 Z" fill="#c80000" fill-opacity="0.7843137254901961" stroke="#000000" stroke-width="0.3" />
<path d="M172.26466,102.5408 L160.04227,107.19139 L156.93774,101.31353 Z" fill="#c80000" fill-opacity="0.7843137254901961" stroke="#000000" stroke-width="0.3" />
<path d="M198.74649,107.67937 L186.85176,108.61765 L185.19609,99.64629 Z" fill="#c80000" fill-opacity="0.7843137254901961" stroke="#000000" stroke-width="0.3" />
<path d="M230.08522,86.52615 L245.56068,92.21517 L245.48971,93.07913 Z" fill="#c80000" fill-opacity="0.7843137254901961" stroke="#000000" stroke-width="0.3" />
<path d="M212.18916,99.43265 L225.74412,102.24953 L222.86737,110.92211 Z" fill="#c80000" fill-opacity="0.7843137254901961" stroke="#000000" stroke-width="0.3" />
<path d="M210.82627,108.42836 L198.74649,107.67937 L198.58885,98.58647 Z" fill="#c80000" fill-opacity="0.7843137254901961" stroke="#000000" stroke-width="0.3" />
<path d="M167.63896,87.74249 L153.39122,93.19656 L153.31873,92.33337 Z" fill="#c80000" fill-opacity="0.7843137254901961" stroke="#000000" stroke-width="0.3" />
<path d="M227.74853,95.97464 L242.02818,101.20461 L238.99851,107.09074 Z" fill="#c80000" fill-opacity="0.7843137254901961" stroke="#000000" stroke-width="0.3" />
<path d="M172.26466,102.5408 L185.19609,99.64629 L186.85176,108.61765 Z" fill="#c80000" fill-opacity="0.7843137254901961" stroke="#000000" stroke-width="0.3" />
<path d="M238.99851,107.09074 L225.74412,102.24953 L227.74853,95.97464 Z" fill="#c80000" fill-opacity="0.7843137254901961" stroke="#000000" stroke-width="0.3" />
<path d="M153.31873,92.33337 L167.58857,86.86901 L167.63896,87.74249 Z" fill="#c80000" fill-opacity="0.7843137254901961" stroke="#000000" stroke-width="0.3" />
<path d="M156.93774,101.31353 L170.10623,96.29028 L172.26466,102.5408 Z" fill="#c80000" fill-opacity="0.7843137254901961" stroke="#000000" stroke-width="0.3" />
<path d="M230.03846,87.40056 L245.48971,93.07913 L245.03753,94.5955 Z" fill="#c80000" fill-opacity="0.7843137254901961" stroke="#000000" stroke-width="0.3" />
<path d="M170.10623,96.29028 L156.93774,101.31353 L154.95571,97.28407 Z" fill="#c80000" fill-opacity="0.7843137254901961" stroke="#000000" stroke-width="0.3" />
<path d="M198.58885,98.58647 L212.18916,99.43265 L210.82627,108.42836 Z" fill="#c80000" fill-opacity="0.7843137254901961" stroke="#000000" stroke-width="0.3" />
<path d="M167.9614,89.3153 L153.85493,94.71211 L153.39122,93.19656 Z" fill="#c80000" fill-opacity="0.7843137254901961" stroke="#000000" stroke-width="0.3" />
<path d="M185.19609,99.64629 L198.58885,98.58647 L198.74649,107.67937 Z" fill="#c80000" fill-opacity="0.7843137254901961" stroke="#000000" stroke-width="0.3" />
<path d="M245.48971,93.07913 L230.03846,87.40056 L230.08522,86.52615 Z" fill="#c80000" fill-opacity="0.7843137254901961" stroke="#000000" stroke-width="0.3" />
<path d="M229.02817,91.69103 L243.963,97.17056 L242.02818,101.20461 Z" fill="#c80000" fill-opacity="0.7843137254901961" stroke="#000000" stroke-width="0.3" />
<path d="M168.72721,92.02136 L154.95571,97.28407 L153.85493,94.71211 Z" fill="#c80000" fill-opacity="0.7843137254901961" stroke="#000000" stroke-width="0.3" />
<path d="M229.73912,88.97669 L245.03753,94.5955 L243.963,97.17056 Z" fill="#c80000" fill-opacity="0.7843137254901961" stroke="#000000" stroke-width="0.3" />
<path d="M185.19609,99.64629 L172.26466,102.5408 L170.10623,96.29028 Z" fill="#c80000" fill-opacity="0.7843137254901961" stroke="#000000" stroke-width="0.3" />
<path d="M153.39122,93.19656 L167.63896,87.74249 L167.9614,89.3153 Z" fill="#c80000" fill-opacity="0.7843137254901961" stroke="#000000" stroke-width="0.3" />
<path d="M242.02818,101.20461 L227.74853,95.97464 L229.02817,91.69103 Z" fill="#c80000" fill-opacity="0.7843137254901961" stroke="#000000" stroke-width="0.3" />
<path d="M154.95571,97.28407 L168.72721,92.02136 L170.10623,96.29028 Z" fill="#c80000" fill-opacity="0.7843137254901961" stroke="#000000" stroke-width="0.3" />
<path d="M245.03753,94.5955 L229.73912,88.97669 L230.03846,87.40056 Z" fill="#c80000" fill-opacity="0.7843137254901961" stroke="#000000" stroke-width="0.3" />
<path d="M153.85493,94.71211 L167.9614,89.3153 L168.72721,92.02136 Z" fill="#c80000" fill-opacity="0.7843137254901961" stroke="#000000" stroke-width="0.3" />
<path d="M225.74412,102.24953 L212.18916,99.43265 L213.13927,92.93169 Z" fill="#c80000" fill-opacity="0.7843137254901961" stroke="#000000" stroke-width="0.3" />
<path d="M214.24717,83.21504 L230.08522,86.52615 L230.03846,87.40056 Z" fill="#c80000" fill-opacity="0.7843137254901961" stroke="#000000" stroke-width="0.3" />
<path d="M243.963,97.17056 L229.02817,91.69103 L229.73912,88.97669 Z" fill="#c80000" fill-opacity="0.7843137254901961" stroke="#000000" stroke-width="0.3" />
<path d="M213.13927,92.93169 L227.74853,95.97464 L225.74412,102.24953 Z" fill="#c80000" fill-opacity="0.7843137254901961" stroke="#000000" stroke-width="0.3" />
<path d="M182.72412,84.34606 L167.63896,87.74249 L167.58857,86.86901 Z" fill="#c80000" fill-opacity="0.7843137254901961" stroke="#000000" stroke-width="0.3" />
<path d="M170.10623,96.29028 L184.04314,93.16264 L185.19609,99.64629 Z" fill="#c80000" fill-opacity="0.7843137254901961" stroke="#000000" stroke-width="0.3" />
<path d="M198.58885,98.58647 L185.19609,99.64629 L184.04314,93.16264 Z" fill="#c80000" fill-opacity="0.7843137254901961" stroke="#000000" stroke-width="0.3" />
<path d="M167.58857,86.86901 L182.69728,83.46622 L182.72412,84.34606 Z" fill="#c80000" fill-opacity="0.7843137254901961" stroke="#000000" stroke-width="0.3" />
<path d="M212.18916,99.43265 L198.58885,98.58647 L198.47841,92.01682 Z" fill="#c80000" fill-opacity="0.7843137254901961" stroke="#000000" stroke-width="0.3" />
<path d="M184.04314,93.16264 L170.10623,96.29028 L168.72721,92.02136 Z" fill="#c80000" fill-opacity="0.7843137254901961" stroke="#000000" stroke-width="0.3" />
<path d="M230.03846,87.40056 L214.22521,84.09587 L214.24717,83.21504 Z" fill="#c80000" fill-opacity="0.7843137254901961" stroke="#000000" stroke-width="0.3" />
<path d="M214.22521,84.09587 L230.03846,87.40056 L229.73912,88.97669 Z" fill="#c80000" fill-opacity="0.7843137254901961" stroke="#000000" stroke-width="0.3" />
<path d="M182.89633,85.95488 L167.9614,89.3153 L167.63896,87.74249 Z" fill="#c80000" fill-opacity="0.7843137254901961" stroke="#000000" stroke-width="0.3" />
<path d="M198.47841,92.01682 L213.13927,92.93169 L212.18916,99.43265 Z" fill="#c80000" fill-opacity="0.7843137254901961" stroke="#000000" stroke-width="0.3" />
<path d="M213.74575,88.50251 L229.02817,91.69103 L227.74853,95.97464 Z" fill="#c80000" fill-opacity="0.7843137254901961" stroke="#000000" stroke-width="0.3" />
<path d="M184.04314,93.16264 L198.47841,92.01682 L198.58885,98.58647 Z" fill="#c80000" fill-opacity="0.7843137254901961" stroke="#000000" stroke-width="0.3" />
<path d="M198.35015,82.21982 L214.24717,83.21504 L214.22521,84.09587 Z" fill="#c80000" fill-opacity="0.7843137254901961" stroke="#000000" stroke-width="0.3" />
<path d="M183.30561,88.74445 L168.72721,92.02136 L167.9614,89.3153 Z" fill="#c80000" fill-opacity="0.7843137254901961" stroke="#000000" stroke-width="0.3" />
<path d="M167.63896,87.74249 L182.72412,84.34606 L182.89633,85.95488 Z" fill="#c80000" fill-opacity="0.7843137254901961" stroke="#000000" stroke-width="0.3" />
<path d="M182.69728,83.46622 L198.35015,82.21982 L198.35251,83.10239 Z" fill="#c80000" fill-opacity="0.7843137254901961" stroke="#000000" stroke-width="0.3" />
<path d="M214.08316,85.7072 L229.73912,88.97669 L229.02817,91.69103 Z" fill="#c80000" fill-opacity="0.7843137254901961" stroke="#000000" stroke-width="0.3" />
<path d="M227.74853,95.97464 L213.13927,92.93169 L213.74575,88.50251 Z" fill="#c80000" fill-opacity="0.7843137254901961" stroke="#000000" stroke-width="0.3" />
<path d="M198.35251,83.10239 L182.72412,84.34606 L182.69728,83.46622 Z" fill="#c80000" fill-opacity="0.7843137254901961" stroke="#000000" stroke-width="0.3" />
<path d="M168.72721,92.02136 L183.30561,88.74445 L184.04314,93.16264 Z" fill="#c80000" fill-opacity="0.7843137254901961" stroke="#000000" stroke-width="0.3" />
<path d="M229.73912,88.97669 L214.08316,85.7072 L214.22521,84.09587 Z" fill="#c80000" fill-opacity="0.7843137254901961" stroke="#000000" stroke-width="0.3" />
<path d="M214.22521,84.09587 L198.35251,83.10239 L198.35015,82.21982 Z" fill="#c80000" fill-opacity="0.7843137254901961" stroke="#000000" stroke-width="0.3" />
<path d="M167.9614,89.3153 L182.89633,85.95488 L183.30561,88.74445 Z" fill="#c80000" fill-opacity="0.7843137254901961" stroke="#000000" stroke-width="0.3" />
<path d="M229.02817,91.69103 L213.74575,88.50251 L214.08316,85.7072 Z" fill="#c80000" fill-opacity="0.7843137254901961" stroke="#000000" stroke-width="0.3" />
<path d="M198.47841,92.01682 L184.04314,93.16264 L183.30561,88.74445 Z" fill="#c80000" fill-opacity="0.7843137254901961" stroke="#000000" stroke-width="0.3" />
<path d="M198.35251,83.10239 L214.22521,84.09587 L214.08316,85.7072 Z" fill="#c80000" fill-opacity="0.7843137254901961" stroke="#000000" stroke-width="0.3" />
<path d="M213.13927,92.93169 L198.47841,92.01682 L198.40812,87.54398 Z" fill="#c80000" fill-opacity="0.7843137254901961" stroke="#000000" stroke-width="0.3" />
<path d="M182.72412,84.34606 L198.35251,83.10239 L198.36908,84.72427 Z" fill="#c80000" fill-opacity="0.7843137254901961" stroke="#000000" stroke-width="0.3" />
<path d="M198.36908,84.72427 L182.89633,85.95488 L182.72412,84.34606 Z" fill="#c80000" fill-opacity="0.7843137254901961" stroke="#000000" stroke-width="0.3" />
<path d="M198.40812,87.54398 L213.74575,88.50251 L213.13927,92.93169 Z" fill="#c80000" fill-opacity="0.7843137254901961" stroke="#000000" stroke-width="0.3" />
<path d="M183.30561,88.74445 L198.40812,87.54398 L198.47841,92.01682 Z" fill="#c80000" fill-opacity="0.7843137254901961" stroke="#000000" stroke-width="0.3" />
<path d="M214.08316,85.7072 L198.36908,84.72427 L198.35251,83.10239 Z" fill="#c80000" fill-opacity="0.7843137254901961" stroke="#000000" stroke-width="0.3" />
<path d="M198.40812,87.54398 L183.30561,88.74445 L182.89633,85.95488 Z" fill="#c80000" fill-opacity="0.7843137254901961" stroke="#000000" stroke-width="0.3" />
<path d="M198.36908,84.72427 L214.08316,85.7072 L213.74575,88.50251 Z" fill="#c80000" fill-opacity="0.7843137254901961" stroke="#000000" stroke-width="0.3" />
<path d="M182.89633,85.95488 L198.36908,84.72427 L198.40812,87.54398 Z" fill="#c80000" fill-opacity="0.7843137254901961" stroke="#000000" stroke-width="0.3" />
<path d="M213.74575,88.50251 L198.40812,87.54398 L198.36908,84.72427 Z" fill="#c80000" fill-opacity="0.7843137254901961" stroke="#000000" stroke-width="0.3" />
</svg>